<svg width="266" height="49" viewBox="0 0 266 49" fill="none" xmlns="http://www.w3.org/2000/svg">
<g clip-path="url(#clip0)">
<path opacity="0.1" d="M56.7459 16.0422H51.5002V22.6045H56.3625C56.3751 22.6722 56.3871 22.7399 56.4013 22.807H51.5002V28.098L51.5248 28.0898C51.6632 28.0396 51.8007 27.9862 51.9373 27.9296L52.0252 27.8925C52.1651 27.8333 52.3026 27.7699 52.4377 27.7024C52.4862 27.6794 52.5341 27.6553 52.5814 27.6305C53.3358 27.2473 54.0311 26.7512 54.6452 26.1585C54.6628 26.1426 54.6794 26.1261 54.6954 26.1102C54.7792 26.0266 54.8614 25.9424 54.9413 25.8559L55.0291 25.7593C55.1233 25.6539 55.214 25.545 55.3024 25.4349L55.3412 25.3866C55.6967 24.9367 55.9954 24.4421 56.2302 23.9146C56.2376 23.8987 56.2439 23.8822 56.2507 23.8663C56.322 23.7002 56.3865 23.5318 56.4424 23.3605C56.4664 23.2881 56.4892 23.2156 56.5092 23.1432C56.516 23.1214 56.5223 23.1002 56.528 23.079C56.819 22.028 56.8526 20.9358 56.8526 19.8494C56.8526 19.7228 56.8526 19.5956 56.8526 19.4696C56.8526 19.031 56.8464 18.5864 56.8384 18.1478C56.8384 18.0335 56.8332 17.9199 56.8304 17.8051C56.8235 17.5134 56.8133 17.2221 56.7996 16.9313C56.7961 16.85 56.7927 16.7694 56.7876 16.6893C56.7876 16.6428 56.783 16.5962 56.7802 16.5497C56.7688 16.3772 56.7585 16.21 56.7459 16.0422Z" fill="#2B6BB9"/>
<path opacity="0.1" d="M51.5007 8.73685H54.3781C53.9064 8.06047 53.3947 7.41469 52.8461 6.8032C52.4182 6.32155 51.9692 5.85168 51.499 5.39948L51.5007 8.73685Z" fill="#2B6BB9"/>
<path opacity="0.1" d="M51.5002 8.93945V15.8397H56.7294C56.7294 15.8197 56.726 15.7991 56.7243 15.7808C56.7197 15.7267 56.7151 15.6725 56.71 15.6177C56.7049 15.563 56.698 15.4905 56.6912 15.4264C56.6843 15.3622 56.6775 15.288 56.6695 15.2197C56.6615 15.1514 56.6546 15.0813 56.6461 15.0124C56.6375 14.9435 56.6295 14.8746 56.6204 14.8063C56.6113 14.738 56.6027 14.6686 56.5925 14.6003C56.5845 14.5414 56.5771 14.4872 56.5685 14.4301C56.5565 14.35 56.544 14.2693 56.5308 14.1899C56.5293 14.178 56.5273 14.1662 56.5246 14.1545C56.4302 13.5695 56.3017 12.9908 56.14 12.4217C55.969 11.8187 55.7521 11.2306 55.4913 10.6629C55.21 10.0624 54.8836 9.48556 54.5151 8.93768L51.5002 8.93945Z" fill="#2B6BB9"/>
<path opacity="0.1" d="M39.0426 16.042V22.6043H50.247V16.042H39.0426ZM39.0426 22.8068V27.2506C40.3469 26.8202 41.8383 26.9939 43.1905 27.3471C44.2375 27.6215 45.2576 27.9948 46.3028 28.2633C46.7697 28.3864 47.2436 28.4788 47.7218 28.5401L47.8393 28.553C47.8964 28.5589 47.9534 28.5648 48.0105 28.5695L48.1816 28.5819H48.1993H48.2758C48.2845 28.5825 48.2933 28.5825 48.302 28.5819L48.3945 28.5854H48.3973C48.4412 28.5854 48.4857 28.5854 48.5303 28.5889H48.5873C48.6312 28.5889 48.6757 28.5889 48.7202 28.5889H48.8178H48.8965C48.9302 28.5889 48.9633 28.5889 48.9964 28.5854C49.05 28.5854 49.1037 28.5807 49.1579 28.5766L49.2577 28.5701L49.3809 28.5601C49.4682 28.553 49.5521 28.5436 49.6405 28.533C49.6748 28.5289 49.7096 28.5248 49.7438 28.5195L49.7946 28.513C49.8807 28.5012 49.9657 28.4871 50.0519 28.4724C50.1152 28.4624 50.1786 28.45 50.2425 28.4382V22.8068H39.0426ZM47.376 8.73431V8.93686H39.0426V15.8395H50.247V8.93921H49.685V8.73666H50.247V4.27702C48.0675 2.46526 45.52 1.04623 42.6827 0.390883C41.4877 0.117908 40.2665 -0.0134612 39.0426 -0.000675095V8.73666L47.376 8.73431ZM21.7584 8.69545L21.7978 8.73431H37.7891V0.0599722C34.9421 0.304328 32.1658 1.29117 29.9275 2.92629C28.8521 3.71118 27.8861 4.6415 26.6794 5.24385C26.0462 5.56811 25.3544 5.7526 24.6483 5.78555L21.7584 8.69545ZM21.6483 5.13668V7.10036L23.1934 5.54414C22.6188 5.33923 22.1658 5.1991 21.646 5.13904L21.6483 5.13668ZM21.597 29.8408H21.6483V34.145C22.2314 34.1002 22.8122 34.0386 23.3908 33.9601C25.9778 33.616 28.5128 32.9383 30.9363 31.9428V31.9428C31.1964 31.8352 31.4547 31.7242 31.7111 31.6095C31.8819 31.533 32.0517 31.4545 32.2206 31.374C32.4739 31.2539 32.7253 31.1304 32.9748 31.0037C34.079 30.4436 35.1442 29.805 36.1625 29.0924C36.2258 29.0482 36.2897 29.0035 36.3525 28.9581C36.4788 28.8678 36.6041 28.7768 36.7285 28.6849C36.7907 28.6384 36.8529 28.5919 36.9145 28.5448L37.0411 28.4447C37.1689 28.3464 37.2962 28.2474 37.4251 28.1503C37.5444 28.062 37.6647 27.9736 37.7868 27.8912V22.8039H24.941C24.9501 22.7739 24.9586 22.745 24.9683 22.7132C24.9581 22.7438 24.9489 22.7721 24.9404 22.8039H21.646V29.8396L21.597 29.8408ZM21.6483 8.93804V15.8395H37.7891V8.93921L21.6483 8.93804ZM21.6483 16.0408V22.6043H37.7891V16.042L21.6483 16.0408ZM18.4213 5.33865L20.3931 7.3247V5.12785C19.7324 5.17025 19.0752 5.24051 18.4213 5.33865ZM4.69108 16.042V22.6043H20.3931V16.042H4.69108ZM8.48636 32.249C10.8663 33.184 13.3547 33.7933 15.8881 34.0613H15.8989C16.3778 34.1135 16.858 34.154 17.3396 34.1826H17.3572C18.3665 34.2415 19.3798 34.2551 20.3914 34.2162V22.8068H4.69108L4.74814 30.3624L8.48636 32.249ZM0.341797 22.6043H3.43873V16.042H2.21376C2.08653 16.2728 1.96329 16.5048 1.84633 16.7403C1.78357 16.8656 1.72252 16.9922 1.66319 17.1201C0.857001 18.8471 0.34465 20.7454 0.341797 22.6043ZM0.341797 22.8068C0.366901 24.1399 0.65788 25.4482 1.29632 26.6571C1.82693 27.661 2.56408 28.5413 3.43645 29.3067V22.8068H0.341797ZM2.32616 15.8395H3.43645V14.1319C3.03627 14.6791 2.66635 15.2492 2.32844 15.8395H2.32616ZM9.28285 8.73666H20.0228L20.0616 8.6978L20.0046 8.63892L16.9847 5.5989C16.0883 5.79198 15.2032 6.03672 14.3333 6.33197C14.2512 6.35964 14.169 6.39085 14.0874 6.41734C12.4079 7.00524 10.7966 7.78308 9.28285 8.73666V8.73666ZM4.69108 12.5857V15.8395H18.4618H18.4647H20.3948V9.12704L20.1746 8.94216H8.96677C7.39546 9.9616 5.95834 11.1863 4.69108 12.5857V12.5857Z" fill="#2B6BB9"/>
<path opacity="0.1" d="M51.5002 12.4197V15.8396H56.7294C56.7294 15.8195 56.726 15.7989 56.7243 15.7807C56.7197 15.7265 56.7151 15.6723 56.71 15.6176C56.7049 15.5628 56.698 15.4904 56.6912 15.4262C56.6843 15.362 56.6775 15.2878 56.6695 15.2195C56.6615 15.1512 56.6546 15.0812 56.6461 15.0123C56.6375 14.9434 56.6295 14.8745 56.6204 14.8062C56.6113 14.7379 56.6027 14.6684 56.5925 14.6001C56.5845 14.5412 56.5771 14.4871 56.5685 14.4299C56.5565 14.3499 56.544 14.2692 56.5308 14.1897C56.5293 14.1778 56.5273 14.166 56.5246 14.1544C56.4302 13.5693 56.3017 12.9907 56.14 12.4215L51.5002 12.4197Z" fill="#2B6BB9"/>
<path opacity="0.1" d="M56.7459 16.0422H51.5002V22.6045H56.3625C56.3751 22.6722 56.3871 22.7399 56.4013 22.807H51.5002V28.098L51.5248 28.0898C51.6632 28.0396 51.8007 27.9862 51.9373 27.9296L52.0252 27.8925C52.1651 27.8333 52.3026 27.7699 52.4377 27.7024C52.4862 27.6794 52.5341 27.6553 52.5814 27.6305C53.3358 27.2473 54.0311 26.7512 54.6452 26.1585C54.6628 26.1426 54.6794 26.1261 54.6954 26.1102C54.7792 26.0266 54.8614 25.9424 54.9413 25.8559L55.0291 25.7593C55.1233 25.6539 55.214 25.545 55.3024 25.4349L55.3412 25.3866C55.6967 24.9367 55.9954 24.4421 56.2302 23.9146C56.2376 23.8987 56.2439 23.8822 56.2507 23.8663C56.322 23.7002 56.3865 23.5318 56.4424 23.3605C56.4664 23.2881 56.4892 23.2156 56.5092 23.1432C56.516 23.1214 56.5223 23.1002 56.528 23.079C56.819 22.028 56.8526 20.9358 56.8526 19.8494C56.8526 19.7228 56.8526 19.5956 56.8526 19.4696C56.8526 19.031 56.8464 18.5864 56.8384 18.1478C56.8384 18.0335 56.8332 17.9199 56.8304 17.8051C56.8235 17.5134 56.8133 17.2221 56.7996 16.9313C56.7961 16.85 56.7927 16.7694 56.7876 16.6893C56.7876 16.6428 56.783 16.5962 56.7802 16.5497C56.7688 16.3772 56.7585 16.21 56.7459 16.0422Z" fill="#2B6BB9"/>
<path opacity="0.1" d="M46.3025 9.92736V15.8396H50.2467V9.92736H49.6847V7.92542H47.3757V9.92736H46.3025Z" fill="#2B6BB9"/>
<path opacity="0.1" d="M50.2467 16.0422H46.3025V22.6039H50.2467V16.0422Z" fill="#2B6BB9"/>
<path opacity="0.1" d="M50.2473 22.807H46.3037V28.2635C46.7704 28.3863 47.2441 28.4787 47.7221 28.5402L47.8396 28.5532C47.8967 28.5596 47.9537 28.5649 48.0108 28.5696L48.182 28.582C48.1877 28.582 48.1939 28.582 48.1996 28.582C48.2247 28.582 48.2504 28.582 48.2761 28.5855H48.3023C48.3331 28.5855 48.364 28.5855 48.3953 28.5891C48.4393 28.5891 48.4838 28.5891 48.5283 28.5926H48.5853C48.6298 28.5926 48.6738 28.5926 48.7183 28.5926H48.8158H48.8946L48.995 28.5891C49.048 28.5891 49.1022 28.5844 49.1559 28.5802L49.2552 28.5738L49.379 28.5638C49.4657 28.5561 49.5501 28.5473 49.638 28.5367L49.7413 28.5231L49.792 28.5166C49.8782 28.5043 49.9632 28.4913 50.0494 28.476C50.1133 28.466 50.176 28.4536 50.2399 28.4419L50.2473 22.807Z" fill="#2B6BB9"/>
<path opacity="0.1" d="M24.8994 9.22913H21.6467V15.8391H24.8994V9.22913Z" fill="#2B6BB9"/>
<path opacity="0.1" d="M21.6467 16.0422V22.6044H37.7898V19.774H29.1911V21.4439H24.8989V16.0422H21.6467Z" fill="#2B6BB9"/>
<path opacity="0.1" d="M21.5955 29.843H21.6468V34.1478C22.2299 34.1023 22.8107 34.0406 23.3893 33.9629C25.9771 33.6176 28.5128 32.9389 30.9371 31.9427C31.6308 31.6554 32.3104 31.3425 32.9756 31.0042C34.0798 30.4439 35.145 29.8051 36.1633 29.0923C36.4177 28.9141 36.6682 28.7318 36.9147 28.5453C37.0859 28.4152 37.257 28.2827 37.4282 28.1537C37.5474 28.0654 37.6678 27.9771 37.7899 27.8941V22.8068H24.9423C24.9514 22.7767 24.96 22.7479 24.9691 22.7167C24.9594 22.7467 24.9497 22.7756 24.9412 22.8068H21.6468V29.8401L21.5955 29.843Z" fill="#2B6BB9"/>
<path opacity="0.1" d="M13.1641 8.73679H15.2831V8.1309H14.3337V6.33209C14.2515 6.35977 14.1694 6.39097 14.0878 6.41747V8.1309H13.1641V8.73679Z" fill="#2B6BB9"/>
<path opacity="0.1" d="M8.05786 15.8394H18.4624H18.4589H18.4641H20.3937V9.2289H19.8471V14.116H17.3481V11.2238H15.2833V8.93921H13.1643V11.2238H11.1V14.1154H8.05786V15.8394Z" fill="#2B6BB9"/>
<path opacity="0.1" d="M8.05739 16.0422V22.6045H20.3932V16.0422H8.05739ZM8.48816 32.2491C10.8681 33.1842 13.3565 33.7935 15.8899 34.0615H15.9007C16.3796 34.1137 16.8598 34.1541 17.3413 34.1828H17.359C18.3683 34.2417 19.3816 34.2552 20.3932 34.2164V22.807H8.05739V25.1334H4.69116L4.70885 30.3273" fill="#2B6BB9"/>
<path opacity="0.1" d="M3.22152 22.807H0.344238C0.369342 24.1401 0.660893 25.4484 1.29877 26.6572C1.82938 27.6617 2.5671 28.5414 3.43889 29.3068V25.1334H3.22152V22.807Z" fill="#2B6BB9"/>
<path opacity="0.1" d="M0.341797 22.6045H3.22135V17.1204H1.66319C0.857001 18.8473 0.34465 20.7457 0.341797 22.6045Z" fill="#2B6BB9"/>
<path opacity="0.1" d="M23.3892 11.0666H21.6467V13.1392H23.3892V11.0666Z" fill="#2B6BB9"/>
<path opacity="0.1" d="M23.3892 15.3625H21.6467V15.8395H23.3892V15.3625Z" fill="#2B6BB9"/>
<path opacity="0.1" d="M23.3892 16.0422H21.6467V17.4347H23.3892V16.0422Z" fill="#2B6BB9"/>
<path opacity="0.1" d="M23.3892 19.6579H21.6467V21.7305H23.3892V19.6579Z" fill="#2B6BB9"/>
<path opacity="0.1" d="M23.3892 23.9539H21.6467V26.0265H23.3892V23.9539Z" fill="#2B6BB9"/>
<path opacity="0.1" d="M21.6468 29.8401H21.5955H21.6468V30.3212H23.3893V28.2486H21.6468V29.8401Z" fill="#2B6BB9"/>
<path opacity="0.1" d="M21.6467 32.5449V34.1458C22.2298 34.1003 22.8106 34.0387 23.3892 33.9609V32.5478L21.6467 32.5449Z" fill="#2B6BB9"/>
<path opacity="0.1" d="M37.7896 22.4518H30.3223V22.6037H37.7896V22.4518Z" fill="#2B6BB9"/>
<path opacity="0.1" d="M37.7896 22.807H30.3223V23.3905H37.7896V22.807Z" fill="#2B6BB9"/>
<path opacity="0.1" d="M37.7896 25.303H30.3223V26.2416H37.7896V25.303Z" fill="#2B6BB9"/>
<path opacity="0.1" d="M30.3223 28.1537V29.0923H36.1635C36.4172 28.9144 36.6677 28.7319 36.9149 28.5447C37.0861 28.4151 37.2573 28.2826 37.4284 28.1543L30.3223 28.1537Z" fill="#2B6BB9"/>
<path opacity="0.1" d="M30.3223 31.0043V31.9429H30.9367C31.6301 31.6563 32.3095 31.3435 32.9747 31.0043H30.3223Z" fill="#2B6BB9"/>
<path opacity="0.1" d="M15.8899 18.0276H17.3596V16.6787H15.8899V18.0276Z" fill="#2B6BB9"/>
<path opacity="0.1" d="M47.7185 11.7413H49.1882V10.3924H47.7185V11.7413Z" fill="#2B6BB9"/>
<path opacity="0.1" d="M47.7185 14.8749H49.1882V13.5259H47.7185V14.8749Z" fill="#2B6BB9"/>
<path opacity="0.1" d="M47.7185 18.0081H49.1882V16.6592H47.7185V18.0081Z" fill="#2B6BB9"/>
<path opacity="0.1" d="M47.7185 21.1417H49.1882V19.7927H47.7185V21.1417Z" fill="#2B6BB9"/>
<path opacity="0.1" d="M47.7185 24.2761H49.1882V22.9272H47.7185V24.2761Z" fill="#2B6BB9"/>
<path opacity="0.1" d="M47.7185 27.4091H49.1882V26.0601H47.7185V27.4091Z" fill="#2B6BB9"/>
<path opacity="0.1" d="M10.2771 18.0276H11.7468V16.6787H10.2771V18.0276Z" fill="#2B6BB9"/>
<path opacity="0.1" d="M15.8899 21.3544H17.3596V20.0054H15.8899V21.3544Z" fill="#2B6BB9"/>
<path opacity="0.1" d="M10.2771 21.3544H11.7468V20.0054H10.2771V21.3544Z" fill="#2B6BB9"/>
<path opacity="0.1" d="M15.8899 24.6817H17.3596V23.3327H15.8899V24.6817Z" fill="#2B6BB9"/>
<path opacity="0.1" d="M10.2771 24.6817H11.7468V23.3327H10.2771V24.6817Z" fill="#2B6BB9"/>
<path opacity="0.1" d="M15.8899 28.009H17.3596V26.6601H15.8899V28.009Z" fill="#2B6BB9"/>
<path opacity="0.1" d="M10.2771 28.009H11.7468V26.6601H10.2771V28.009Z" fill="#2B6BB9"/>
<path opacity="0.1" d="M15.8899 31.3373H17.3596V29.9883H15.8899V31.3373Z" fill="#2B6BB9"/>
<path opacity="0.1" d="M10.2771 31.3373H11.7468V29.9883H10.2771V31.3373Z" fill="#2B6BB9"/>
<path opacity="0.1" d="M17.3591 34.1848V33.3151H15.8899V34.0611L17.3591 34.1848Z" fill="#2B6BB9"/>
<path opacity="0.1" d="M51.5002 14.1519V14.9238H56.5308V14.1519H51.5002ZM56.0299 14.2008H56.4401V14.8756H56.0276L56.0299 14.2008ZM55.5289 14.2008H55.9415V14.8756H55.5272L55.5289 14.2008ZM55.0291 14.2008H55.4416V14.8756H55.0291V14.2008ZM54.5282 14.2008H54.9407V14.8756H54.5282V14.2008ZM54.0278 14.2008H54.4432V14.8756H54.0307L54.0278 14.2008ZM53.5269 14.2008H53.9394V14.8756H53.5269V14.2008ZM53.0259 14.2008H53.4384V14.8756H53.0259V14.2008ZM52.5255 14.2008H52.938V14.8756H52.5255V14.2008ZM52.0252 14.2008H52.4377V14.8756H52.0252V14.2008ZM51.5248 14.2008H51.9373V14.8756H51.5248V14.2008Z" fill="#2B6BB9"/>
<path opacity="0.1" d="M51.5002 16.3989V17.1709H56.5308V16.3989H51.5002ZM56.0299 16.4478H56.4401V17.122H56.0276L56.0299 16.4478ZM55.5289 16.4478H55.9415V17.122H55.5272L55.5289 16.4478ZM55.0291 16.4478H55.4416V17.122H55.0291V16.4478ZM54.5282 16.4478H54.9407V17.122H54.5282V16.4478ZM54.0278 16.4478H54.4432V17.122H54.0307L54.0278 16.4478ZM53.5269 16.4478H53.9394V17.122H53.5269V16.4478ZM53.0259 16.4478H53.4384V17.122H53.0259V16.4478ZM52.5255 16.4478H52.938V17.122H52.5255V16.4478ZM52.0252 16.4478H52.4377V17.122H52.0252V16.4478ZM51.5248 16.4478H51.9373V17.122H51.5248V16.4478Z" fill="#2B6BB9"/>
<path opacity="0.1" d="M51.5002 18.645V19.4164H56.5308V18.645H51.5002ZM56.0299 18.6933H56.4401V19.3681H56.0276L56.0299 18.6933ZM55.5289 18.6933H55.9415V19.3681H55.5272L55.5289 18.6933ZM55.0291 18.6933H55.4416V19.3681H55.0291V18.6933ZM54.5282 18.6933H54.9407V19.3681H54.5282V18.6933ZM54.0278 18.6933H54.4432V19.3681H54.0307L54.0278 18.6933ZM53.5269 18.6933H53.9394V19.3681H53.5269V18.6933ZM53.0259 18.6933H53.4384V19.3681H53.0259V18.6933ZM52.5255 18.6933H52.938V19.3681H52.5255V18.6933ZM52.0252 18.6933H52.4377V19.3681H52.0252V18.6933ZM51.5248 18.6933H51.9373V19.3681H51.5248V18.6933Z" fill="#2B6BB9"/>
<path opacity="0.1" d="M51.5002 20.8914V21.6628H56.5308V20.8914H51.5002ZM56.0299 20.9397H56.4401V21.6145H56.0276L56.0299 20.9397ZM55.5289 20.9397H55.9415V21.6145H55.5272L55.5289 20.9397ZM55.0291 20.9397H55.4416V21.6145H55.0291V20.9397ZM54.5282 20.9397H54.9407V21.6145H54.5282V20.9397ZM54.0278 20.9397H54.4432V21.6145H54.0307L54.0278 20.9397ZM53.5269 20.9397H53.9394V21.6145H53.5269V20.9397ZM53.0259 20.9397H53.4384V21.6145H53.0259V20.9397ZM52.5255 20.9397H52.938V21.6145H52.5255V20.9397ZM52.0252 20.9397H52.4377V21.6145H52.0252V20.9397ZM51.5248 20.9397H51.9373V21.6145H51.5248V20.9397Z" fill="#2B6BB9"/>
<path opacity="0.1" d="M51.5002 23.1378V23.9109H56.2302C56.237 23.895 56.2439 23.8785 56.2501 23.8626H56.0299V23.1867H56.4401V23.3545C56.4641 23.2827 56.4869 23.2108 56.5069 23.1378H51.5002ZM55.529 23.1867H55.9415V23.8609H55.5272L55.529 23.1867ZM55.0291 23.1867H55.4417V23.8609H55.0291V23.1867ZM54.5282 23.1867H54.9407V23.8609H54.5282V23.1867ZM54.0278 23.1867H54.4432V23.8609H54.0307L54.0278 23.1867ZM53.5269 23.1867H53.9394V23.8609H53.5269V23.1867ZM53.0259 23.1867H53.4384V23.8609H53.0259V23.1867ZM52.5255 23.1867H52.938V23.8609H52.5255V23.1867ZM52.0252 23.1867H52.4377V23.8609H52.0252V23.1867ZM51.5248 23.1867H51.9373V23.8609H51.5248V23.1867Z" fill="#2B6BB9"/>
<path opacity="0.1" d="M51.5002 25.383V26.1543H54.6446C54.6629 26.1384 54.6788 26.1214 54.6954 26.1061H54.5282V25.433H54.9407V25.854L55.0292 25.7569V25.433H55.3025C55.3156 25.4166 55.3281 25.4001 55.3413 25.3848L51.5002 25.383ZM54.0278 25.4313H54.4432V26.1061H54.0307L54.0278 25.4313ZM53.5269 25.4313H53.9394V26.1061H53.5269V25.4313ZM53.0259 25.4313H53.4384V26.1061H53.0259V25.4313ZM52.5255 25.4313H52.9381V26.1061H52.5255V25.4313ZM52.0252 25.4313H52.4377V26.1061H52.0252V25.4313ZM51.5248 25.4313H51.9373V26.1061H51.5248V25.4313Z" fill="#2B6BB9"/>
<path opacity="0.1" d="M51.5002 27.6312V28.0982C51.5086 28.0958 51.5168 28.0929 51.5248 28.0893V27.6772H51.9373V27.928L52.0252 27.8909V27.6795H52.4377V27.7031C52.4862 27.6801 52.5342 27.656 52.5815 27.6318L51.5002 27.6312Z" fill="#2B6BB9"/>
<path opacity="0.1" d="M18.4607 15.8409H18.4635H18.4607ZM21.5953 29.8433H21.6466H21.5953ZM24.941 22.8071C24.9501 22.777 24.9587 22.7482 24.9684 22.7164C24.9587 22.747 24.9495 22.777 24.941 22.8071ZM18.4607 15.8409H18.4635H18.4607ZM47.3766 8.73688V8.93943H49.6856V8.73688H47.3766ZM21.5953 29.8433H21.6466H21.5953ZM24.941 22.8071C24.9501 22.777 24.9587 22.7482 24.9684 22.7164C24.9587 22.747 24.9495 22.777 24.941 22.8071ZM18.4607 15.8409H18.4635H18.4607ZM21.5953 29.8433H21.6466H21.5953ZM24.941 22.8071C24.9501 22.777 24.9587 22.7482 24.9684 22.7164C24.9587 22.747 24.9495 22.777 24.941 22.8071Z" fill="#2B6BB9"/>
<path opacity="0.1" d="M51.5176 48.5425C52.6073 48.5425 53.4906 48.4415 53.4906 48.3169C53.4906 48.1924 52.6073 48.0914 51.5176 48.0914C50.428 48.0914 49.5447 48.1924 49.5447 48.3169C49.5447 48.4415 50.428 48.5425 51.5176 48.5425Z" fill="#2B6BB9"/>
<path d="M38.131 31.516L37.1451 31.4601L37.0784 28.5379L37.063 27.8419L38.1031 27.644L38.1099 28.5414L38.131 31.516Z" fill="#D48A9B"/>
<path d="M37.3625 31.0073L32.296 34.2581L32.1865 35.2473L32.7342 35.2756V34.569L36.048 32.6471L32.0496 37.7627V38.554H32.7068L32.6521 37.6779L37.2803 32.2514L37.8555 32.308L42.7308 38.0171L42.8403 38.9786L43.4976 39.0068L43.388 38.0171L39.5266 33.0428L42.1009 34.8799L42.1557 35.6712L42.676 35.6995L42.6212 34.7386L37.7185 30.8377L37.3625 31.0073Z" fill="#D48A9B"/>
<path d="M30.9978 25.4474C31.4762 24.833 31.8773 24.1585 32.1914 23.4401C32.54 22.644 32.9222 21.7249 32.9513 21.4529C33.0084 20.9441 34.4028 19.9267 35.9364 19.8702C36.9366 19.8331 38.4948 19.0276 39.459 18.4711C40.366 17.9389 41.3746 17.6174 42.4144 17.529C43.5424 17.4413 44.6031 17.6698 44.069 19.0205L36.8972 27.9834C36.8972 27.9834 30.781 29.0956 30.4038 27.3074C30.3827 27.2172 30.3535 27.1293 30.3165 27.0448C30.2452 26.8758 30.2264 26.4348 30.9978 25.4474Z" fill="#2B6BB9"/>
<path opacity="0.2" d="M31.5369 25.625C32.0185 25.004 32.4234 24.3236 32.7425 23.5995C33.0677 22.8553 33.4128 22.0209 33.4402 21.7683C33.4927 21.2826 34.8289 20.3104 36.2964 20.2563C37.2532 20.2209 38.744 19.452 39.6661 18.9203C40.5346 18.4126 41.4999 18.1064 42.4948 18.0229C43.5737 17.9393 44.5887 18.1578 44.0798 19.4478L38.3909 28.0445C38.3909 28.0445 31.3731 29.0719 31.0017 27.372C30.9797 27.2818 30.9505 27.1936 30.9144 27.1082C30.8494 26.9398 30.8402 26.5271 31.5369 25.625Z" fill="#DDA2A6"/>
<path opacity="0.1" d="M38.1099 28.5414C37.7802 28.5414 37.4327 28.5414 37.0784 28.5379L37.063 27.8419L38.1031 27.6447L38.1099 28.5414Z" fill="black"/>
<g opacity="0.1">
<path opacity="0.1" d="M42.1007 34.7103L39.5264 32.8732L39.8213 33.253L42.1007 34.8799L42.1555 35.6712L42.6758 35.6995L42.6661 35.5293L42.1555 35.5017L42.1007 34.7103Z" fill="black"/>
<path opacity="0.1" d="M32.7344 34.3996V34.5692L35.8056 32.788L36.0481 32.4777L32.7344 34.3996Z" fill="black"/>
<path opacity="0.1" d="M32.0496 38.3844V38.554H32.7068L32.696 38.3844H32.0496Z" fill="black"/>
<path opacity="0.1" d="M32.734 35.1061L32.2045 35.079L32.1863 35.2474L32.734 35.2757V35.1061Z" fill="black"/>
<path opacity="0.1" d="M42.8409 38.8091L42.7313 37.8475L37.856 32.1384L37.2809 32.0819L32.6526 37.5084L32.6623 37.6668L37.2809 32.2515L37.856 32.308L42.7313 38.0171L42.8409 38.9786L43.4981 39.0069L43.4793 38.8361L42.8409 38.8091Z" fill="black"/>
</g>
<path opacity="0.1" d="M37.5281 22.9724C37.5281 22.9724 38.8107 23.9404 38.2492 23.9516C37.6878 23.9628 37.5281 22.9724 37.5281 22.9724Z" fill="black"/>
<path d="M32.146 28.2678C32.146 28.2678 34.2684 28.0983 35.0626 26.5156C35.0626 26.5156 36.6784 23.2082 37.9935 22.8408C39.3087 22.4734 41.7455 21.6538 42.7588 20.382C43.7721 19.1101 44.1971 18.1351 44.1971 18.1351C44.1971 18.1351 44.4584 19.1643 43.6351 20.3778C42.8118 21.5914 42.5123 23.4602 41.9372 25.4416C41.3621 27.4229 41.143 28.209 40.1023 28.3267C39.3178 28.4121 35.1699 28.3691 33.1867 28.3267C32.538 28.3085 32.146 28.2678 32.146 28.2678Z" fill="#2B6BB9"/>
<path opacity="0.2" d="M32.146 28.2678C32.146 28.2678 34.2684 28.0983 35.0626 26.5156C35.0626 26.5156 36.6784 23.2082 37.9935 22.8408C39.3087 22.4734 41.7455 21.6538 42.7588 20.382C43.7721 19.1101 44.1971 18.1351 44.1971 18.1351C44.1971 18.1351 44.4584 19.1643 43.6351 20.3778C42.8118 21.5914 42.5123 23.4602 41.9372 25.4416C41.3621 27.4229 41.143 28.209 40.1023 28.3267C39.3178 28.4121 35.1699 28.3691 33.1867 28.3267C32.538 28.3085 32.146 28.2678 32.146 28.2678Z" fill="#DDA2A6"/>
<path d="M32.6807 28.268C32.6807 28.268 34.7095 28.1038 35.4684 26.5711C35.4684 26.5711 37.0134 23.3692 38.2697 23.0135C39.5261 22.6579 41.8562 21.8636 42.825 20.6324C43.7938 19.4012 44.1994 18.4567 44.1994 18.4567C44.1994 18.4567 44.4476 19.4577 43.6626 20.6324C42.8775 21.807 42.5894 23.6153 42.0394 25.5313C41.4893 27.4472 41.2805 28.2133 40.2855 28.3228C39.5358 28.4052 35.5711 28.3634 33.6751 28.3228C33.0555 28.3104 32.6807 28.268 32.6807 28.268Z" fill="#2B6BB9"/>
<path opacity="0.1" d="M31.0364 27.4439C31.0364 27.4439 32.1455 27.882 32.7754 27.6418C33.4053 27.4015 34.9663 26.6949 34.9663 26.6949C34.9663 26.6949 32.3372 26.8669 31.0364 27.4439Z" fill="black"/>
<path d="M38.4532 48.014C38.4532 48.014 35.265 47.8374 34.4879 47.3663C33.7108 46.8953 32.6108 46.8953 32.6051 46.8953L19.9104 44.0396L14.6328 42.7442L13.6914 42.6164L16.8009 38.9446L16.8956 38.9022L21.4794 36.8561C21.4794 36.8561 23.5334 36.9738 23.939 38.3552C23.9668 38.4525 23.9859 38.5522 23.9961 38.6531C24.0386 39.0839 23.923 39.5155 23.672 39.8625C23.51 40.091 23.3108 40.4154 23.2481 40.701C23.2127 40.8623 23.2207 41.0113 23.3051 41.1249C23.4763 41.3003 23.6653 41.4561 23.8688 41.5895C24.9865 42.355 27.8119 43.6162 32.7477 41.6843C32.7477 41.6843 34.8587 39.5352 36.4563 40.4478C38.0538 41.3605 38.4532 48.014 38.4532 48.014Z" fill="#E1DEE5"/>
<path opacity="0.1" d="M23.2511 40.701C23.2158 40.8623 23.2238 41.0113 23.3082 41.1249C23.4793 41.3003 23.6683 41.4561 23.8719 41.5895L14.2627 42.332L16.8964 38.9022L21.4802 36.8561C21.4802 36.8561 23.5341 36.9738 23.9398 38.3552C23.9675 38.4525 23.9866 38.5522 23.9968 38.6531C24.0394 39.0839 23.9238 39.5155 23.6728 39.8625C23.513 40.091 23.3139 40.4154 23.2511 40.701Z" fill="black"/>
<path d="M13.8624 27.1994L21.736 27.376V37.1026L14.2618 42.3318L12.4646 40.6242L12.8355 34.9717L12.4646 29.7018L13.8624 27.1994Z" fill="#A36468"/>
<path d="M9.38477 25.6096L18.5774 22.6861C18.7426 22.634 18.9158 22.614 19.0881 22.6273L41.0485 24.2812C42.9268 24.4142 44.7346 25.0723 46.2781 26.1848C47.6993 27.2194 49.1069 28.8074 49.7584 31.2121C50.2298 32.9865 50.1971 34.8633 49.6643 36.6191L47.7244 43.096C47.7244 43.096 49.1793 29.0235 34.6589 28.3169L9.38477 25.6096Z" fill="#D9D6DF"/>
<path d="M14.2619 26.9934V42.6163C14.2619 42.6163 11.7429 42.2506 11.295 41.7431C10.9276 41.3268 8.79886 40.1533 7.87514 38.9444C7.6726 38.6795 7.52768 38.4145 7.47233 38.1513C7.1631 36.6981 5.90332 33.2642 5.90332 33.2642L6.24565 29.908L7.67203 27.7294L10.4392 26.434H12.5788L14.2619 26.9934Z" fill="#B8797D"/>
<path d="M10.268 27.1994C10.268 27.1994 6.17376 29.849 7.06951 34.1126C7.14254 34.46 7.20588 34.8092 7.24753 35.1625C7.41127 36.5415 8.39375 40.5041 14.2618 42.3318V42.744L11.7725 42.0274L10.0826 41.0659L8.79256 39.8718L7.21557 37.8863L6.48357 36.2671L6.21541 34.1344L6.06079 31.6997L6.43792 29.6112L7.3274 28.2522L8.41144 27.3825L10.268 27.1994Z" fill="#D9D6DF"/>
<path opacity="0.1" d="M14.2612 26.9933V29.4787C12.4754 29.6789 6.9462 30.8329 7.92811 37.4276L7.87391 38.942C7.67137 38.677 7.52645 38.4121 7.47111 38.1489C7.16187 36.6957 5.9021 33.2618 5.9021 33.2618L6.24443 29.9056L7.6708 27.727L10.438 26.4316H12.5775L14.2612 26.9933Z" fill="black"/>
<path opacity="0.1" d="M23.674 39.8625C23.512 40.0909 23.3128 40.4154 23.2501 40.7009C23.0013 40.4065 22.9477 40.068 23.3071 39.8C23.7573 39.4621 23.9074 38.8756 23.941 38.3551C23.9688 38.4524 23.9879 38.5521 23.9981 38.653C24.0406 39.0838 23.925 39.5154 23.674 39.8625V39.8625Z" fill="white"/>
<path d="M46.7259 41.4488L45.6419 45.2466L43.1885 47.7196L40.1075 48.3673L35.3149 47.4841V29.9081C35.3149 29.9081 36.1422 29.3488 36.2278 29.3488C36.3134 29.3488 38.6241 29.7315 38.6241 29.7315L43.856 33.6041L44.0728 33.7648L46.4121 37.3566L46.7259 41.4488Z" fill="#B8797D"/>
<path d="M35.3149 29.1721V47.484L35.7771 47.5694V29.1721H35.3149Z" fill="#A36468"/>
<path opacity="0.1" d="M43.9587 34.8248C40.5355 31.922 36.7299 31.4951 35.3149 31.4421V29.9112C35.3149 29.9112 36.1422 29.3518 36.2278 29.3518C36.3134 29.3518 38.6241 29.7345 38.6241 29.7345L43.856 33.6071L43.9587 34.8248Z" fill="black"/>
<path d="M34.5929 27.9943L13.15 25.5802L10.74 25.4483C9.989 25.4035 9.23795 25.5358 8.54386 25.8352C7.84978 26.1347 7.23091 26.5933 6.73422 27.1764C5.47902 28.6661 4.53019 31.294 5.91606 35.806C5.91606 35.806 7.36125 41.6547 14.3602 42.9112L34.6968 47.667C35.1475 47.7724 35.5925 47.9025 36.0318 48.0503C37.8781 48.6762 44.1336 50.2978 47.0805 44.7854C48.0904 42.8953 48.3928 40.6914 48.0037 38.5699C47.2945 34.6896 44.6169 28.105 34.5929 27.9943ZM45.0984 44.5334C42.3484 49.1567 36.6817 47.7806 34.978 47.2378C34.561 47.1047 34.1388 46.9887 33.7114 46.8945L14.9256 42.7469C8.45328 41.65 7.11649 36.5432 7.11649 36.5432C6.02389 33.187 6.50144 31.0214 7.38465 29.6506C8.3095 28.2157 9.91959 27.4131 11.5879 27.5003L13.8084 27.618L32.988 30.2624C33.3759 30.316 33.7668 30.3513 34.1582 30.3648C42.6873 30.6634 45.3409 35.5034 46.0153 38.839C46.4113 40.7885 46.11 42.8341 45.0984 44.5334Z" fill="#E1DEE5"/>
<path d="M0.241107 37.8338C0.943451 38.3189 2.0098 38.0881 2.0098 38.0881C2.0098 38.0881 3.61818 37.3021 4.09344 37.3021C4.56871 37.3021 5.72464 36.8163 5.72464 36.8163L5.68527 36.4889L5.56774 35.5027C6.29975 36.0915 7.11335 35.8883 7.51388 35.8454C7.94407 35.7994 10.2428 34.3892 10.4642 34.2962C10.5241 34.2715 10.5943 34.1908 10.6656 34.0866C10.8137 33.8529 10.9438 33.6076 11.0547 33.3529V33.3529C11.1985 33.2222 11.3035 33.1174 11.296 33.0944C11.2886 33.0715 11.3531 32.8995 11.437 32.7058C11.7633 32.6469 12.0446 32.5221 12.1342 32.4467C12.2078 32.386 12.2667 32.3084 12.3063 32.2201C12.3459 32.1318 12.3651 32.0353 12.3624 31.938C12.3624 31.938 14.6052 29.6034 14.3102 28.6324C14.0153 27.6615 15.0354 27.6379 15.0354 27.6379C15.0354 27.6379 16.5981 26.9443 16.8155 26.5286C16.9496 26.2725 18.1221 25.7102 19.0041 25.3157L19.1125 25.2674C19.4549 26.0417 21.1939 25.444 21.5362 25.1184C21.8985 24.7716 22.9626 24.6097 22.9626 24.6097C22.9626 24.6097 23.0082 20.0759 23.3477 19.5C23.5092 19.2262 23.548 18.3312 23.544 17.4669C23.544 17.4362 23.544 17.408 23.544 17.375C24.0198 17.279 25.1518 17.057 25.6773 17.0035C26.0105 16.9693 26.3579 16.755 26.6244 16.5466L26.6558 16.5872C26.7473 16.626 26.8462 16.6427 26.945 16.6361C27.0325 16.6462 27.1209 16.6291 27.1989 16.5872C27.4032 16.4694 28.1506 16.2404 28.4222 16.125C28.6937 16.0096 28.3771 15.177 28.1734 15.0151C27.9697 14.8531 27.8311 14.6453 27.9452 14.5528C28.0593 14.4604 27.6736 14.229 27.4471 14.1825C27.2206 14.136 26.5411 13.8127 26.5411 13.8127C26.5411 13.8127 26.2917 13.2828 25.8844 13.2828C25.477 13.2828 24.9327 12.8665 24.9327 12.8665C24.9104 12.6816 24.4797 12.6586 24.4797 12.6586C24.4797 12.6586 22.8491 11.3633 22.5769 11.5258C22.3048 11.6883 21.5579 11.2714 21.5579 11.2714C21.5579 11.2714 20.641 11.3774 20.4254 11.2031C20.4234 11.1459 20.4034 11.0909 20.3683 11.0465C20.3198 10.8899 20.083 10.6755 19.8548 10.4971C19.8723 10.3866 19.881 10.2747 19.8811 10.1627C19.8811 10.1144 19.8811 10.0661 19.8759 10.0184C19.8759 10.0102 19.8759 10.0025 19.8759 9.99429L19.9085 9.66867C19.9107 9.5616 19.9377 9.45663 19.9872 9.36249C20.0254 9.30361 20.0819 9.25356 20.1247 9.19527C20.1347 9.18154 20.1438 9.16719 20.1521 9.15229L20.1589 9.13992C20.1652 9.12865 20.1709 9.11705 20.176 9.10518L20.1812 9.09341C20.1938 9.06142 20.2035 9.02831 20.2103 8.99449V8.98683C20.2131 8.97152 20.2154 8.95622 20.2171 8.94032C20.2169 8.93817 20.2169 8.93599 20.2171 8.93384C20.2265 8.79932 20.209 8.66425 20.1658 8.53698C20.0979 8.31853 19.9918 8.10774 19.9803 7.87987C19.9746 7.76682 19.9929 7.65141 19.9689 7.54072C19.9119 7.28812 19.6625 7.12855 19.4201 7.02257C19.0852 6.87772 18.9163 6.71933 18.6475 6.50383C18.4193 6.32129 18.0416 6.41315 17.7541 6.43199C17.0968 6.47556 16.4481 6.67988 15.8296 6.89067C15.5894 6.97311 15.3446 7.06732 15.1575 7.23513C15.0315 7.34572 14.945 7.4966 14.9116 7.66378V7.66378C14.9051 7.70266 14.9026 7.74213 14.9042 7.78154C14.9042 7.78507 14.9042 7.78861 14.9042 7.79155C14.9042 7.80686 14.9042 7.82158 14.9093 7.8363C14.909 7.8412 14.909 7.84612 14.9093 7.85102C14.9121 7.869 14.9163 7.88672 14.9219 7.90401C14.9481 7.98939 14.9966 8.06653 15.0246 8.15131C15.0309 8.17059 15.036 8.19025 15.04 8.21019C15.04 8.21019 15.04 8.21432 15.04 8.21608C15.044 8.23492 15.0468 8.25318 15.0491 8.27496C15.0742 8.48517 14.9989 8.70479 14.9658 8.91912C14.9612 8.94915 14.9578 8.978 14.9555 9.01097C14.9456 9.13498 14.9562 9.25982 14.9869 9.38016C14.9867 9.38152 14.9867 9.38292 14.9869 9.38428C14.9903 9.399 14.9955 9.41372 15 9.42785C15.0016 9.43424 15.0035 9.44053 15.0057 9.44669C15.0097 9.45906 15.0149 9.47142 15.0194 9.4832L15.0291 9.50793C15.0337 9.51853 15.0388 9.52913 15.044 9.53972C15.0491 9.55032 15.0525 9.55739 15.0571 9.56563C15.0618 9.57531 15.0669 9.58475 15.0725 9.5939C15.0776 9.60332 15.0833 9.61215 15.089 9.62098C15.0947 9.62981 15.0999 9.63806 15.1062 9.6463C15.1124 9.65454 15.1193 9.66455 15.1261 9.67338L15.1438 9.69576L15.1678 9.72167L15.1866 9.7411L15.2146 9.76583C15.2214 9.77113 15.2271 9.77701 15.234 9.78172C15.2408 9.78644 15.2574 9.7988 15.2693 9.80646L15.2859 9.81823C15.3041 9.82942 15.3235 9.83943 15.3429 9.84885C15.473 9.90773 15.6373 9.93187 15.7155 10.0502C15.7341 10.0779 15.7471 10.1091 15.7537 10.1421C15.7537 10.1497 15.7537 10.158 15.7537 10.1656V10.1862C15.7537 10.2545 15.7583 10.3223 15.7651 10.3888C15.7646 10.4254 15.7667 10.462 15.7714 10.4983C15.7752 10.5257 15.7825 10.5524 15.7931 10.5778C15.8844 11.0431 16.1257 11.4627 16.4778 11.7684C16.4846 11.8043 16.4926 11.8461 16.5011 11.8932C16.3018 12.0476 16.0792 12.1669 15.8422 12.2465C15.2984 12.4108 14.5299 13.1686 14.5299 13.1686C14.5299 13.1686 14.1476 16.0119 14.0558 16.3587C13.9639 16.7055 13.896 18.0468 13.896 18.0468C13.896 18.0468 13.8053 18.6015 13.6678 18.8788C13.5714 19.0743 13.5891 19.9145 13.8572 20.425C13.8135 20.5254 13.7575 20.6196 13.6906 20.7053C13.1469 21.353 11.5157 21.3294 10.972 21.3294C10.4716 21.3294 10.317 21.6427 10.2959 21.6922C9.30026 21.9866 6.07667 22.9334 5.6944 23.1053C5.24139 23.3096 4.99206 25.3286 4.99206 25.3286C4.99206 25.3286 4.04552 28.6801 4.09059 29.1194C4.13567 29.5586 3.77337 30.7822 3.77337 30.7822C3.77337 30.7822 3.77337 32.1653 3.61989 32.2589C3.61856 32.2602 3.61701 32.2612 3.61533 32.2619C3.45671 32.3313 3.47896 33.002 3.47896 33.002C3.47896 33.002 3.59593 33.0367 3.77793 33.0844C3.72944 33.423 3.54971 33.897 3.41107 34.2338C3.34032 34.1413 3.27129 34.1031 3.23021 34.2102C3.1161 34.5046 1.41815 36.5855 0.987383 36.5855C0.782557 36.5855 0.443651 36.7586 0.220567 36.9924C-0.0236273 37.2497 -0.127467 37.58 0.241107 37.8338ZM8.03194 25.7885C9.95753 25.9734 12.0189 25.6478 12.0189 25.6478C12.0189 25.6478 11.8603 26.2277 11.7245 26.4592C11.5887 26.6906 11.203 28.0083 11.203 28.2845C11.203 28.5606 10.5914 30.9429 10.4105 31.0583C10.3347 31.1072 10.2668 31.2285 10.2131 31.3527C10.1655 31.4676 10.1255 31.5856 10.0933 31.706C10.096 31.7661 10.1011 31.8232 10.1087 31.8774C9.97351 32.0051 9.8303 32.1394 9.70307 32.2583C9.70307 32.2583 8.89289 32.7235 8.61903 32.9779C8.34517 33.2322 7.07855 33.5443 7.07855 33.5443C6.7645 33.6837 6.45956 33.844 6.16567 34.0242C5.77257 34.2685 5.37946 34.5794 5.27676 34.8862C5.32126 34.3692 5.39372 33.7468 5.44222 33.3512L5.51411 33.3482C6.14913 33.3076 6.05442 32.6823 6.02075 32.5274C6.01619 32.505 6.01277 32.4927 6.01277 32.4927C6.46578 31.9839 7.48478 28.1944 7.34899 27.7763C7.2132 27.3583 7.4631 26.9903 7.51616 26.9903C7.56922 26.9903 7.64339 26.528 7.53042 26.2737C7.41746 26.0193 8.03194 25.7885 8.03194 25.7885ZM23.6022 15.5891L23.4818 15.6198V15.5933C23.4818 15.5933 23.5257 15.5933 23.6022 15.5891V15.5891ZM17.0203 12.1005C17.0021 12.124 16.9838 12.1464 16.9633 12.1682L16.9399 12.1929C16.9399 12.1499 16.9399 12.1063 16.9399 12.0645C16.9673 12.0757 16.9935 12.0893 17.0203 12.1005ZM14.7513 16.586L14.7593 16.7161C14.7593 16.7161 14.7473 16.7956 14.7245 16.9316L14.7513 16.586ZM25.1609 15.2942L24.7655 15.3642C24.8226 15.3424 24.8768 15.3189 24.9304 15.2924C24.9701 15.2732 25.0128 15.2612 25.0565 15.2571C25.1065 15.2625 25.1559 15.2734 25.2037 15.2894C25.1893 15.2898 25.175 15.2914 25.1609 15.2942V15.2942Z" fill="url(#paint0_linear)"/>
<path d="M11.7927 31.9859C11.7927 31.9859 11.3363 32.958 11.3597 33.0269C11.383 33.0958 10.3812 33.9207 10.3812 33.9207L9.29199 33.1182L9.4061 32.567C9.4061 32.567 10.6288 31.4301 10.7184 31.2987C10.8079 31.1674 11.7927 31.9859 11.7927 31.9859Z" fill="#EFB7B9"/>
<path d="M5.58049 35.275C6.33647 36.0322 7.22538 35.8049 7.64815 35.7572C8.07093 35.7095 10.3263 34.3117 10.5431 34.2198C10.6002 34.1951 10.6715 34.115 10.7411 34.0114C10.8866 33.7793 11.0142 33.5357 11.1228 33.283C11.108 33.2872 10.3685 33.5056 10.182 33.283C10.182 33.283 9.87044 32.8891 9.80368 32.8891C9.73693 32.8891 9.79855 32.1979 9.79855 32.1979C9.79855 32.1979 9.0032 32.6595 8.73676 32.9121C8.47031 33.1647 7.22481 33.4738 7.22481 33.4738C6.91678 33.6121 6.61793 33.7713 6.33019 33.9502C5.74138 34.3211 5.14801 34.8446 5.58049 35.275Z" fill="#67647E"/>
<path opacity="0.1" d="M5.58051 35.275C6.33648 36.0322 7.2254 35.8049 7.64817 35.7573C8.07095 35.7096 10.3263 34.3117 10.5431 34.2199C10.6002 34.1951 10.6715 34.1151 10.7411 34.0114C10.4781 33.8495 8.7596 34.9771 8.27863 35.1838C7.79765 35.3904 6.58068 35.275 5.88974 34.9771C5.54741 34.8281 5.89431 34.3706 6.32906 33.9502C5.7414 34.3211 5.14803 34.8446 5.58051 35.275Z" fill="black"/>
<path d="M5.66947 32.8889C5.66947 32.8889 5.35282 35.3437 5.43326 35.6652C5.51371 35.9867 3.44604 34.5641 3.44604 34.5641C3.44604 34.5641 4.1695 33.0255 3.95954 32.6723C3.74958 32.319 5.66947 32.8889 5.66947 32.8889Z" fill="#EFB7B9"/>
<path d="M3.69128 32.935C3.69128 32.935 4.98072 33.3248 5.69162 33.2789C6.31466 33.2388 6.22166 32.6182 6.18914 32.4646C6.18457 32.4428 6.18115 32.4304 6.18115 32.4304C6.62561 31.9252 7.62635 28.1627 7.49341 27.75C7.36047 27.3372 7.60181 26.9728 7.65887 26.9728C7.71592 26.9728 7.78382 26.5135 7.67256 26.2615C7.5613 26.0095 8.16209 25.7798 8.16209 25.7798C10.0517 25.963 12.0749 25.6397 12.0749 25.6397C12.0749 25.6397 11.9191 26.2156 11.7856 26.4452C11.6521 26.6748 11.2721 27.982 11.2721 28.2575C11.2721 28.5331 10.6719 30.896 10.4939 31.0108C10.4197 31.0591 10.353 31.1792 10.3005 31.3052C10.2536 31.4201 10.2144 31.5381 10.183 31.6585C10.2497 33.1959 11.9391 32.6006 12.1839 32.3927C12.2187 32.3628 12.2505 32.3293 12.2786 32.2926C12.3644 32.1765 12.4093 32.0336 12.4058 31.8875C12.4058 31.8875 14.607 29.5706 14.3177 28.6067C14.0285 27.6428 15.0292 27.6205 15.0292 27.6205C15.0292 27.6205 16.5634 26.9321 16.7768 26.5188C16.9086 26.265 18.0588 25.7074 18.9249 25.3153C19.4675 25.0697 19.8983 24.8902 19.8983 24.8902L19.5377 23.5559L19.2524 22.5037L18.7172 22.2965L17.0056 21.6323L13.9349 21.1877L13.6536 21.2254L10.6702 21.624C10.6702 21.624 6.31466 22.91 5.86963 23.1114C5.4246 23.3127 5.18041 25.3176 5.18041 25.3176C5.18041 25.3176 4.24699 28.6444 4.29264 29.0825C4.33828 29.5205 3.98112 30.7311 3.98112 30.7311C3.98112 30.7311 3.98112 32.1036 3.82992 32.1967C3.82843 32.1971 3.82685 32.1971 3.82536 32.1967C3.66903 32.272 3.69128 32.935 3.69128 32.935Z" fill="#444053"/>
<path opacity="0.1" d="M8.15918 25.7768C10.0488 25.96 12.072 25.6367 12.072 25.6367C12.2055 25.2028 14.074 24.0098 14.074 24.0098C12.541 23.62 8.15918 25.7768 8.15918 25.7768Z" fill="black"/>
<path d="M10.1819 31.6501C10.2486 33.1874 11.938 32.5922 12.1828 32.3843C12.2176 32.3544 12.2494 32.3209 12.2775 32.2842C11.687 32.5085 10.64 32.6822 10.2994 31.2991C10.2526 31.4132 10.2134 31.5305 10.1819 31.6501V31.6501Z" fill="#444053"/>
<path d="M3.69129 32.9351C3.69129 32.9351 4.98073 33.3248 5.69163 33.2789C6.31467 33.2389 6.22167 32.6183 6.18915 32.4646C5.53644 32.4434 4.41246 32.3804 3.82879 32.1979C3.8273 32.1983 3.82572 32.1983 3.82423 32.1979C3.66904 32.2721 3.69129 32.9351 3.69129 32.9351Z" fill="#444053"/>
<path opacity="0.1" d="M10.1819 31.6501C10.2486 33.1874 11.938 32.5922 12.1828 32.3843C12.2176 32.3544 12.2494 32.3209 12.2775 32.2842C11.687 32.5085 10.64 32.6822 10.2994 31.2991C10.2526 31.4132 10.2134 31.5305 10.1819 31.6501V31.6501Z" fill="black"/>
<path opacity="0.1" d="M3.69129 32.9351C3.69129 32.9351 4.98073 33.3248 5.69163 33.2789C6.31467 33.2389 6.22167 32.6183 6.18915 32.4646C5.53644 32.4434 4.41246 32.3804 3.82879 32.1979C3.8273 32.1983 3.82572 32.1983 3.82423 32.1979C3.66904 32.2721 3.69129 32.9351 3.69129 32.9351Z" fill="black"/>
<path d="M0.511618 37.7302C1.20084 38.2118 2.24608 37.9822 2.24608 37.9822C2.24608 37.9822 3.82422 37.2026 4.2915 37.2026C4.75877 37.2026 5.89017 36.7203 5.89017 36.7203L5.85194 36.3959L5.66823 34.8391C5.66823 34.8391 3.93662 34.7932 3.86701 34.6324C3.86701 34.6324 3.55606 33.8422 3.4448 34.1343C3.33355 34.4263 1.66641 36.4895 1.24363 36.4895C1.04223 36.4895 0.709598 36.6615 0.491078 36.8935C0.25316 37.1508 0.151032 37.4781 0.511618 37.7302Z" fill="#67647E"/>
<path opacity="0.1" d="M6.4917 24.1705C6.4917 24.1705 7.93688 25.1126 7.53693 25.3175C7.13698 25.5224 6.4917 24.1705 6.4917 24.1705Z" fill="black"/>
<path opacity="0.1" d="M5.88989 25.983C5.88989 25.983 7.13481 27.203 6.66811 27.2354C6.20141 27.2677 5.88989 25.983 5.88989 25.983Z" fill="black"/>
<path opacity="0.1" d="M4.55811 29.8581C4.55811 29.8581 5.19027 31.0846 4.95235 31.2972C4.71444 31.5097 4.55811 29.8581 4.55811 29.8581Z" fill="black"/>
<path opacity="0.1" d="M11.5165 31.0997C11.294 31.3288 13.6275 30.3425 13.0946 30.2966C12.5617 30.2507 11.5165 31.0997 11.5165 31.0997Z" fill="black"/>
<path d="M16.1853 13.892L16.26 13.8808C16.5362 13.8372 17.5386 13.6747 18.4378 13.4733C18.6569 13.4238 18.8692 13.3726 19.0654 13.3196C19.7541 13.1336 20.2162 12.9328 19.9213 12.7679C19.531 12.5495 19.3256 12.1526 19.2172 11.8111C19.2069 11.7775 19.1972 11.7451 19.1881 11.7128C19.1402 11.5399 19.1102 11.3622 19.0985 11.1828C19.0985 11.1828 16.5881 10.2649 17.0754 11.1828C17.3156 11.6333 17.1541 12.0007 16.9276 12.258C16.7719 12.4281 16.5886 12.569 16.3861 12.6743L16.1853 13.892Z" fill="#EFB7B9"/>
<path opacity="0.1" d="M18.8749 13.1802C18.8749 13.1802 17.9763 13.8456 17.0583 13.2951C16.1403 12.7445 14.9399 18.1592 14.9399 18.1592L13.6949 21.3252C13.6949 21.3252 12.8888 22.0135 13.8923 22.3121C14.8959 22.6106 17.1222 22.0135 17.6876 22.8856C18.253 23.7576 19.3234 23.8948 19.4329 23.8948C19.5425 23.8948 19.9658 20.6134 19.9658 20.6134L20.0759 15.864L18.8749 13.1802Z" fill="black"/>
<path d="M13.9345 22.1284C14.9381 22.4263 17.1649 21.8298 17.7303 22.7019C17.9685 23.0572 18.3012 23.3338 18.6883 23.4985C18.9381 23.6143 19.2047 23.6871 19.4773 23.714C19.4916 23.714 19.5127 23.6551 19.5372 23.5497C19.6936 22.8856 20.0102 20.4326 20.0102 20.4326L20.1198 15.6833L19.0637 13.3192L18.9193 12.9965C18.7778 13.0939 18.6243 13.1714 18.4629 13.2267C18.1154 13.348 17.6128 13.4163 17.1038 13.109C16.8346 12.9476 16.5407 13.2998 16.2606 13.878C15.5851 15.2699 14.9854 17.9731 14.9854 17.9731L13.7393 21.1433C13.7097 21.1695 13.6815 21.1974 13.6549 21.2269C13.478 21.4177 13.1465 21.894 13.9345 22.1284Z" fill="#F3F5F9"/>
<path opacity="0.1" d="M18.7189 22.2882C18.6698 22.6889 18.6599 23.0937 18.6893 23.4964C18.7252 24.0695 18.795 24.6397 18.8981 25.204C18.9045 25.2394 18.9137 25.2743 18.9255 25.3082C19.4681 25.0627 19.8988 24.8831 19.8988 24.8831L19.5382 23.5488C19.6946 22.8847 20.0112 20.4317 20.0112 20.4317L20.1208 15.6824L19.0647 13.3195C19.7533 13.1334 20.2155 12.9327 19.9205 12.7678C19.4926 12.5281 19.2866 12.0736 19.1874 11.7126C19.0065 11.9729 18.7947 12.2087 18.5569 12.4145L18.5432 12.4263L18.4633 13.2271L18.4388 13.4732L18.3875 13.9837C18.3875 13.9837 18.6322 20.0178 18.8097 20.3622C18.9871 20.7067 18.8987 21.3714 18.7435 22.1516C18.7338 22.1958 18.7281 22.2411 18.7189 22.2882Z" fill="black"/>
<path d="M18.8296 22.0596C18.6744 22.8398 18.8073 24.1246 18.9853 25.1108C19.1633 26.0971 21.053 25.4553 21.409 25.1108C21.765 24.7664 22.8091 24.6062 22.8091 24.6062C22.8091 24.6062 22.8536 20.1095 23.1874 19.536C23.3455 19.264 23.3837 18.3761 23.3797 17.5182C23.3768 16.748 23.3397 16.002 23.3261 15.7517C23.3226 15.6929 23.3209 15.6605 23.3209 15.6605C23.3209 15.6605 24.7655 13.1369 24.7433 12.952C24.721 12.7671 24.2988 12.7459 24.2988 12.7459C24.2988 12.7459 22.7013 11.4611 22.4314 11.6213C22.1616 11.7814 21.4307 11.3693 21.4307 11.3693C21.4307 11.3693 20.5013 11.4782 20.309 11.2927C20.2973 11.2824 20.2881 11.2694 20.2822 11.2548C20.2762 11.2402 20.2737 11.2243 20.2748 11.2085C20.2965 10.9141 19.3277 10.2876 19.2974 10.2664C20.1144 11.0248 18.7936 12.1936 18.6436 12.3219L18.6299 12.3337L18.4741 13.8911C18.4741 13.8911 18.7189 19.9252 18.8963 20.2697C19.0738 20.6141 18.9853 21.2795 18.8296 22.0596Z" fill="#67647E"/>
<path d="M18.9174 15.62C18.9789 15.62 19.0287 15.5686 19.0287 15.5051C19.0287 15.4417 18.9789 15.3903 18.9174 15.3903C18.856 15.3903 18.8062 15.4417 18.8062 15.5051C18.8062 15.5686 18.856 15.62 18.9174 15.62Z" fill="#444053"/>
<path opacity="0.1" d="M18.689 12.4143L19.3645 13.0885L20.3544 11.3809C20.3427 11.3706 20.3335 11.3576 20.3275 11.343C20.3216 11.3284 20.319 11.3125 20.3201 11.2967C20.3418 11.0023 19.3725 10.3758 19.3428 10.3546C20.1598 11.1171 18.8413 12.2859 18.689 12.4143Z" fill="black"/>
<path opacity="0.1" d="M19.1396 19.2906C19.201 19.2906 19.2508 19.2392 19.2508 19.1758C19.2508 19.1124 19.201 19.061 19.1396 19.061C19.0781 19.061 19.0283 19.1124 19.0283 19.1758C19.0283 19.2392 19.0781 19.2906 19.1396 19.2906Z" fill="black"/>
<path d="M19.1396 19.2445C19.201 19.2445 19.2508 19.1931 19.2508 19.1297C19.2508 19.0663 19.201 19.0149 19.1396 19.0149C19.0781 19.0149 19.0283 19.0663 19.0283 19.1297C19.0283 19.1931 19.0781 19.2445 19.1396 19.2445Z" fill="#444053"/>
<path d="M18.6438 12.3224L19.3193 12.9966L20.3092 11.2891C20.2975 11.2788 20.2883 11.2658 20.2824 11.2512C20.2764 11.2365 20.2739 11.2207 20.275 11.2049C20.2967 10.9104 19.3279 10.284 19.2976 10.2628C20.1147 11.0253 18.7939 12.1935 18.6438 12.3224Z" fill="#67647E"/>
<path d="M18.041 18.7475L19.394 18.7794C19.4476 18.7807 19.492 18.7369 19.4932 18.6817L19.5635 15.5088C19.5647 15.4535 19.5223 15.4077 19.4687 15.4065L18.1157 15.3745C18.0622 15.3733 18.0178 15.417 18.0165 15.4723L17.9462 18.6452C17.945 18.7004 17.9874 18.7463 18.041 18.7475Z" fill="#D1D9EC"/>
<path d="M18.0495 18.822L19.4025 18.8539C19.4561 18.8552 19.5005 18.8114 19.5017 18.7561L19.572 15.5833C19.5733 15.528 19.5308 15.4822 19.4773 15.4809L18.1243 15.449C18.0707 15.4477 18.0263 15.4915 18.0251 15.5468L17.9548 18.7196C17.9535 18.7749 17.996 18.8207 18.0495 18.822Z" fill="#DFE6F5"/>
<path d="M18.8026 16.7038C18.9369 16.7038 19.0457 16.5915 19.0457 16.4529C19.0457 16.3144 18.9369 16.2021 18.8026 16.2021C18.6684 16.2021 18.5596 16.3144 18.5596 16.4529C18.5596 16.5915 18.6684 16.7038 18.8026 16.7038Z" fill="white"/>
<path opacity="0.1" d="M10.4272 21.8531C10.983 22.1057 14.6293 21.4409 15.1628 21.2796C15.6962 21.1183 16.475 19.88 16.0968 18.9832C15.7185 18.0865 16.2297 17.2168 16.2297 17.2168C16.2297 17.2168 17.0285 15.4504 17.2082 15.1059C17.3879 14.7615 17.7571 13.7599 17.8084 13.5921C17.8105 13.5733 17.8088 13.5542 17.8034 13.536C17.798 13.5179 17.789 13.5011 17.777 13.4867C17.6321 13.2612 17.073 12.8596 17.073 12.8596C16.9161 12.9185 16.8967 12.4539 16.9018 12.113C16.9052 11.9222 16.9161 11.7703 16.9161 11.7703C16.9161 11.7703 16.8425 11.8475 16.7221 11.9529C16.6782 11.9911 16.6279 12.0335 16.572 12.0771C16.3635 12.2495 16.1276 12.3831 15.8748 12.4722C15.3414 12.6353 14.5854 13.3872 14.5854 13.3872L14.8079 16.9106C14.8079 16.9106 14.2944 20.2245 13.7627 20.8669C13.2309 21.5092 11.6282 21.4863 11.0948 21.4863C10.5613 21.4863 10.4272 21.8531 10.4272 21.8531Z" fill="black"/>
<path d="M10.3821 21.7158C10.9378 21.9678 14.5842 21.3036 15.1176 21.1417C15.6511 20.9798 16.4299 19.7421 16.0516 18.8454C15.6733 17.9486 16.1845 17.0789 16.1845 17.0789C16.1845 17.0789 16.9833 15.3125 17.163 14.9681C17.3427 14.6236 17.7119 13.622 17.7632 13.4542C17.7653 13.4354 17.7636 13.4163 17.7582 13.3982C17.7528 13.38 17.7438 13.3632 17.7319 13.3488C17.5858 13.1239 17.0295 12.7235 17.0295 12.7235C16.8726 12.7824 16.8532 12.3184 16.8584 11.9775C16.8618 11.7861 16.8726 11.6342 16.8726 11.6342C16.8726 11.6342 16.799 11.7114 16.6786 11.8173C16.6347 11.855 16.5845 11.8974 16.5286 11.941C16.3191 12.1137 16.082 12.2474 15.8279 12.3361C15.2945 12.4992 14.5385 13.2511 14.5385 13.2511L14.761 16.7745C14.761 16.7745 14.2475 20.0883 13.7158 20.7307C13.184 21.3731 11.5819 21.3501 11.0479 21.3501C10.5139 21.3501 10.3821 21.7158 10.3821 21.7158Z" fill="#67647E"/>
<path opacity="0.1" d="M16.4294 11.7227C16.4294 11.7227 16.4506 11.8434 16.4865 12.0295C16.6063 12.6595 16.8916 14.035 17.0976 13.982C17.2453 13.9437 17.4969 13.674 17.6886 13.4409C17.5443 13.2136 16.9863 12.812 16.9863 12.812C16.8294 12.8709 16.81 12.4069 16.8151 12.066L16.6354 11.9058L16.4294 11.7227Z" fill="black"/>
<path d="M16.4746 11.6327C16.4746 11.6327 16.4957 11.7534 16.5317 11.9395C16.6515 12.5695 16.9368 13.9449 17.1427 13.8919C17.2905 13.8537 17.5421 13.584 17.7338 13.3508C17.5866 13.1241 17.0303 12.7238 17.0303 12.7238C16.8734 12.7826 16.854 12.3187 16.8592 11.9777L16.6794 11.8176L16.4746 11.6327Z" fill="#67647E"/>
<path d="M15.0515 18.3885C15.0515 18.3885 16.1635 18.1595 16.4744 17.6549C16.7854 17.1503 18.9033 16.7128 18.6425 17.2427C18.3818 17.7726 16.4744 19.4973 16.4744 19.4973L15.6466 20.7202L14.5408 20.4305L14.0747 19.4949L15.0515 18.3885Z" fill="#EFB7B9"/>
<path opacity="0.1" d="M17.6812 19.6982C17.6812 19.6982 16.6045 20.1103 16.4425 20.6615C16.2805 21.2126 17.6812 19.6982 17.6812 19.6982Z" fill="black"/>
<path opacity="0.1" d="M18.3411 20.3391C18.3411 20.3391 18.4392 20.912 17.0898 20.869L18.3411 20.3391Z" fill="black"/>
<path opacity="0.1" d="M24.1668 12.9967L24.6563 12.9507C24.6563 12.9507 25.1897 13.3629 25.5897 13.3629C25.9897 13.3629 26.2344 13.8928 26.2344 13.8928C26.2344 13.8928 26.9014 14.2143 27.1239 14.2603C27.3464 14.3062 27.7241 14.5352 27.6129 14.6271C27.5016 14.7189 27.6351 14.9256 27.8354 15.0858C28.0356 15.2459 28.3489 16.0726 28.0796 16.1874C27.8103 16.3022 27.0794 16.5313 26.8814 16.6461C26.6834 16.7609 26.437 16.6461 26.437 16.6461C26.437 16.6461 25.2594 15.0628 24.6586 15.3613C24.0578 15.6599 23.2351 15.6581 23.2351 15.6581L22.5903 14.2591L24.1668 12.9967Z" fill="black"/>
<path d="M13.9349 20.5466C14.0399 20.708 14.1757 20.821 14.3497 20.844C14.7848 20.8965 15.2258 20.8543 15.6443 20.7203C15.6443 20.7203 13.4049 19.9861 15.561 18.2008H14.9847L14.7907 18.1254L14.8786 17.6503L15.0052 13.3643L14.5385 13.2495C14.5385 13.2495 14.1625 16.0717 14.073 16.4155C13.9834 16.7594 13.9161 18.0907 13.9161 18.0907C13.9161 18.0907 13.8271 18.6412 13.6936 18.915C13.5926 19.1235 13.6205 20.0567 13.9349 20.5466Z" fill="#67647E"/>
<path opacity="0.1" d="M14.0259 20.5464C14.1303 20.7078 14.2666 20.8208 14.4407 20.8438C14.8758 20.8963 15.3168 20.8542 15.7352 20.7201C15.7352 20.7201 13.4958 19.9859 15.6519 18.1995H15.0763L14.884 18.1241C14.5628 18.7041 14.0664 19.7339 14.0259 20.5464Z" fill="black"/>
<path d="M13.9343 20.5465C14.0393 20.7078 14.1751 20.8209 14.3491 20.8438C14.7843 20.8963 15.2252 20.8542 15.6437 20.7202C15.6437 20.7202 13.4043 19.9859 15.5604 18.2007H14.9841L14.7901 18.1253C14.4752 18.7041 13.9765 19.7339 13.9343 20.5465Z" fill="#67647E"/>
<path opacity="0.1" d="M16.9263 12.2598C17.3062 12.4377 17.7301 12.49 18.1399 12.4097C18.5498 12.3294 18.9256 12.1203 19.2159 11.8111C19.2056 11.7775 19.1959 11.7451 19.1868 11.7128C19.1389 11.5399 19.1089 11.3622 19.0972 11.1828C19.0972 11.1828 16.5868 10.2649 17.074 11.1828C17.3142 11.635 17.1528 12.0025 16.9263 12.2598Z" fill="black"/>
<path d="M15.741 10.2663V10.2869C15.741 10.3547 15.7455 10.4218 15.7524 10.4877C15.7592 10.5537 15.7684 10.6137 15.7798 10.6756C15.867 11.1254 16.0954 11.5331 16.4296 11.8357C16.7638 12.1382 17.1852 12.3188 17.6288 12.3495C18.0723 12.3802 18.5133 12.2593 18.8837 12.0055C19.254 11.7517 19.5331 11.3791 19.6777 10.9452C19.6914 10.9046 19.7034 10.864 19.7142 10.8228C19.763 10.6416 19.7876 10.4544 19.7873 10.2663C19.7873 10.2186 19.7873 10.1704 19.7821 10.1233C19.7449 9.58422 19.5065 9.08109 19.1173 8.71964C18.728 8.3582 18.2181 8.1666 17.6947 8.18513C17.1714 8.20366 16.6754 8.43087 16.3111 8.819C15.9467 9.20713 15.7423 9.72593 15.741 10.2663V10.2663Z" fill="#EFB7B9"/>
<path opacity="0.1" d="M15.741 10.287C15.752 10.3532 15.7559 10.4206 15.7524 10.4877C15.7517 10.5242 15.7536 10.5606 15.7581 10.5967C15.7619 10.6239 15.7692 10.6504 15.7798 10.6756C15.8614 10.8734 16.1284 11.0018 16.3047 10.874C16.3725 10.8166 16.4265 10.7436 16.4621 10.6609C16.6493 10.3023 16.9089 9.89011 17.318 9.88304C17.4925 9.87951 17.6563 9.95546 17.8252 10.0008C17.9941 10.0461 18.1938 10.0503 18.3193 9.93191C18.4163 9.84065 18.4619 9.6852 18.5914 9.65341C18.7209 9.62161 18.8408 9.74408 18.9001 9.8642C18.9594 9.98432 19.0068 10.1256 19.1283 10.188C19.1819 10.2151 19.2424 10.2234 19.2995 10.2528C19.5414 10.3894 19.4301 10.8681 19.6812 10.9458C19.689 10.9484 19.697 10.9503 19.7051 10.9517C19.7091 10.9093 19.7137 10.8658 19.7177 10.8234C19.7405 10.5902 19.7631 10.357 19.7856 10.1239C19.7483 9.58483 19.51 9.0817 19.1207 8.72025C18.7314 8.35881 18.2215 8.16721 17.6982 8.18574C17.1748 8.20427 16.6788 8.43148 16.3145 8.81961C15.9501 9.20774 15.7458 9.72654 15.7444 10.2669L15.741 10.287Z" fill="black"/>
<path d="M19.3338 7.14985C19.5717 7.25407 19.8193 7.41423 19.8724 7.66447C19.8957 7.77458 19.8781 7.88881 19.8838 8.00068C19.8952 8.22678 19.9979 8.4364 20.0658 8.65308C20.1337 8.86976 20.1565 9.12413 20.023 9.30666C19.9813 9.36554 19.926 9.41206 19.8883 9.47211C19.8392 9.56677 19.8126 9.67212 19.8107 9.77947L19.7006 10.9088C19.4188 10.854 19.5443 10.3494 19.2944 10.2093C19.2425 10.1799 19.1803 10.1716 19.1261 10.1439C19.0057 10.0851 18.9589 9.94081 18.8979 9.82069C18.8368 9.70057 18.721 9.57751 18.5892 9.6099C18.4574 9.64228 18.414 9.79773 18.3176 9.8884C18.1915 10.0062 17.9913 10.0015 17.8229 9.95729C17.6546 9.91313 17.4903 9.83953 17.3163 9.83953C16.9066 9.8466 16.6465 10.2588 16.4605 10.6173C16.4247 10.7003 16.3706 10.7735 16.3024 10.8311C16.1039 10.9748 15.7889 10.7934 15.7564 10.5532C15.737 10.4183 15.7781 10.2682 15.7028 10.154C15.6275 10.0397 15.4643 10.0156 15.3371 9.95435C15.0119 9.80008 14.9114 9.38144 14.9651 9.03051C15.0044 8.77732 15.102 8.51707 15.0221 8.2733C14.9942 8.1891 14.9468 8.11255 14.9211 8.02836C14.8498 7.79283 14.9662 7.5314 15.1494 7.36359C15.3325 7.19578 15.5727 7.10334 15.8089 7.02208C16.4154 6.81188 17.0521 6.60991 17.6974 6.56634C17.9798 6.5475 18.3501 6.45624 18.5744 6.63818C18.8408 6.84897 19.0051 7.00618 19.3338 7.14985Z" fill="#585268"/>
<path opacity="0.1" d="M18.8051 13.8069C18.8665 13.8069 18.9164 13.7555 18.9164 13.6921C18.9164 13.6287 18.8665 13.5773 18.8051 13.5773C18.7437 13.5773 18.6938 13.6287 18.6938 13.6921C18.6938 13.7555 18.7437 13.8069 18.8051 13.8069Z" fill="black"/>
<path d="M18.8051 13.7611C18.8665 13.7611 18.9164 13.7097 18.9164 13.6463C18.9164 13.5829 18.8665 13.5315 18.8051 13.5315C18.7437 13.5315 18.6938 13.5829 18.6938 13.6463C18.6938 13.7097 18.7437 13.7611 18.8051 13.7611Z" fill="#444053"/>
<path opacity="0.1" d="M19.5168 21.0115C19.5782 21.0115 19.628 20.9601 19.628 20.8967C19.628 20.8333 19.5782 20.7819 19.5168 20.7819C19.4553 20.7819 19.4055 20.8333 19.4055 20.8967C19.4055 20.9601 19.4553 21.0115 19.5168 21.0115Z" fill="black"/>
<path d="M19.5168 20.9657C19.5782 20.9657 19.628 20.9143 19.628 20.8509C19.628 20.7875 19.5782 20.7361 19.5168 20.7361C19.4553 20.7361 19.4055 20.7875 19.4055 20.8509C19.4055 20.9143 19.4553 20.9657 19.5168 20.9657Z" fill="#444053"/>
<path opacity="0.1" d="M19.1396 22.9158C19.201 22.9158 19.2508 22.8644 19.2508 22.801C19.2508 22.7376 19.201 22.6862 19.1396 22.6862C19.0781 22.6862 19.0283 22.7376 19.0283 22.801C19.0283 22.8644 19.0781 22.9158 19.1396 22.9158Z" fill="black"/>
<path d="M19.1396 22.87C19.201 22.87 19.2508 22.8186 19.2508 22.7552C19.2508 22.6918 19.201 22.6404 19.1396 22.6404C19.0781 22.6404 19.0283 22.6918 19.0283 22.7552C19.0283 22.8186 19.0781 22.87 19.1396 22.87Z" fill="#444053"/>
<path opacity="0.1" d="M15.3175 15.5051C15.3175 15.5051 15.0728 17.2185 15.3175 17.517C15.5623 17.8156 15.3175 15.5051 15.3175 15.5051Z" fill="black"/>
<path opacity="0.1" d="M22.5872 18.6871C22.5872 18.6871 23.054 19.7252 22.5872 20.7203C22.1205 21.7154 21.8313 22.1199 21.987 22.7552C22.1428 23.3905 22.5872 18.6871 22.5872 18.6871Z" fill="black"/>
<path opacity="0.1" d="M0.511618 37.7301C1.20084 38.2118 2.24608 37.9821 2.24608 37.9821C2.24608 37.9821 3.82422 37.2025 4.2915 37.2025C4.75877 37.2025 5.89017 36.7203 5.89017 36.7203L5.85194 36.3959C5.39151 36.4871 4.34399 36.7056 4.22303 36.8122C4.06727 36.9499 2.15537 37.6153 2.15537 37.6153C2.15537 37.6153 0.853376 37.4475 0.491078 36.8952C0.25316 37.1507 0.151032 37.4781 0.511618 37.7301Z" fill="black"/>
<g opacity="0.1">
<path opacity="0.1" d="M19.884 7.81709C19.884 7.79236 19.884 7.76763 19.884 7.74231C19.884 7.77116 19.884 7.80119 19.884 7.82828C19.8841 7.82474 19.884 7.82121 19.884 7.81709Z" fill="black"/>
<path opacity="0.1" d="M15.3375 9.76885C15.4647 9.82773 15.6228 9.85128 15.7032 9.96786C15.7836 10.0844 15.7374 10.2322 15.7568 10.3671C15.7905 10.6073 16.1043 10.7893 16.3028 10.645C16.371 10.5874 16.4251 10.5142 16.4609 10.4313C16.6475 10.0727 16.9076 9.6605 17.3167 9.65344C17.4913 9.65049 17.655 9.72645 17.8239 9.7712C17.9928 9.81595 18.1925 9.82066 18.3186 9.70231C18.415 9.61163 18.4607 9.4556 18.5902 9.4238C18.7197 9.39201 18.8389 9.51448 18.8988 9.6346C18.9587 9.75471 19.0055 9.89603 19.1271 9.95844C19.1807 9.98553 19.2412 9.99377 19.2954 10.0232C19.5453 10.1639 19.4197 10.6709 19.7016 10.7227C19.7396 10.3459 19.7763 9.96943 19.8117 9.59338C19.8141 9.48721 19.8406 9.38312 19.8893 9.28955C19.927 9.23067 19.9823 9.18121 20.024 9.12351C20.0744 9.05225 20.1058 8.96862 20.1152 8.88092C20.1389 9.02984 20.1062 9.18244 20.024 9.30722C19.9823 9.3661 19.927 9.41261 19.8893 9.47267C19.8399 9.56705 19.8129 9.67219 19.8106 9.77944C19.7725 10.1559 19.7358 10.5323 19.7005 10.9088C19.4186 10.854 19.5441 10.3494 19.2942 10.2093C19.2423 10.1798 19.1801 10.1716 19.1259 10.1439C19.0055 10.085 18.9587 9.94078 18.8977 9.82066C18.8366 9.70054 18.7208 9.57748 18.589 9.60987C18.4572 9.64225 18.4139 9.7977 18.3174 9.88837C18.1914 10.0061 17.9911 10.0014 17.8228 9.95726C17.6545 9.9131 17.4902 9.8395 17.3156 9.8395C16.9065 9.84657 16.6463 10.2587 16.4597 10.6173C16.4239 10.7003 16.3698 10.7735 16.3017 10.8311C16.1032 10.9747 15.7882 10.7934 15.7557 10.5531C15.7363 10.4183 15.7774 10.2682 15.7021 10.1539C15.6267 10.0397 15.4636 10.0156 15.3363 9.95432C15.0391 9.81301 14.9295 9.45089 14.9546 9.12174C14.9775 9.39083 15.095 9.65344 15.3375 9.76885Z" fill="black"/>
<path opacity="0.1" d="M14.9221 7.84221C14.9478 7.92641 14.9952 8.00355 15.0231 8.08716C15.0525 8.18478 15.0611 8.28784 15.0482 8.38922C15.0438 8.34918 15.0354 8.30972 15.0231 8.27146C14.9952 8.18726 14.9478 8.11071 14.9221 8.02651C14.8996 7.9488 14.8951 7.8667 14.909 7.78687C14.9123 7.80557 14.9167 7.82405 14.9221 7.84221Z" fill="black"/>
</g>
<path d="M27.4645 26.74L22.8819 26.1483C22.8496 26.1442 22.819 26.1308 22.7937 26.1098C22.7683 26.0887 22.7491 26.0608 22.7383 26.0291C22.7274 25.9974 22.7254 25.9633 22.7323 25.9305C22.7392 25.8976 22.7549 25.8674 22.7775 25.8433L24.6997 23.7825C24.7183 23.7624 24.7412 23.7471 24.7665 23.7377C24.7919 23.7283 24.819 23.7251 24.8457 23.7283L28.3495 24.1334C28.3761 24.1365 28.4017 24.1459 28.4243 24.1608C28.4469 24.1757 28.4658 24.1957 28.4797 24.2194C28.4936 24.2431 28.5021 24.2697 28.5044 24.2972C28.5068 24.3248 28.5029 24.3526 28.4932 24.3784L27.65 26.627C27.6356 26.6644 27.6096 26.6958 27.576 26.7163C27.5424 26.7367 27.5032 26.7451 27.4645 26.74Z" fill="#746D83"/>
<path opacity="0.1" d="M27.4645 26.74L22.8819 26.1483C22.8496 26.1442 22.819 26.1308 22.7937 26.1098C22.7683 26.0887 22.7491 26.0608 22.7383 26.0291C22.7274 25.9974 22.7254 25.9633 22.7323 25.9305C22.7392 25.8976 22.7549 25.8674 22.7775 25.8433L24.6997 23.7825C24.7183 23.7624 24.7412 23.7471 24.7665 23.7377C24.7919 23.7283 24.819 23.7251 24.8457 23.7283L28.3495 24.1334C28.3761 24.1365 28.4017 24.1459 28.4243 24.1608C28.4469 24.1757 28.4658 24.1957 28.4797 24.2194C28.4936 24.2431 28.5021 24.2697 28.5044 24.2972C28.5068 24.3248 28.5029 24.3526 28.4932 24.3784L27.65 26.627C27.6356 26.6644 27.6096 26.6958 27.576 26.7163C27.5424 26.7367 27.5032 26.7451 27.4645 26.74Z" fill="black"/>
<path d="M27.4126 26.6872L22.8305 26.0931C22.7982 26.0889 22.7676 26.0755 22.7423 26.0543C22.717 26.0332 22.6978 26.0053 22.687 25.9736C22.6762 25.9419 22.6741 25.9077 22.681 25.8748C22.6879 25.842 22.7035 25.8118 22.7261 25.7876L24.6483 23.7267C24.667 23.7067 24.6898 23.6914 24.7151 23.6819C24.7405 23.6724 24.7675 23.669 24.7943 23.672L28.2975 24.0771C28.3242 24.0802 28.3499 24.0896 28.3725 24.1045C28.3952 24.1194 28.4142 24.1395 28.4281 24.1632C28.4421 24.187 28.4506 24.2137 28.4529 24.2413C28.4553 24.2689 28.4515 24.2967 28.4418 24.3226L27.598 26.5713C27.584 26.6091 27.5582 26.6411 27.5246 26.6621C27.491 26.6832 27.4516 26.692 27.4126 26.6872V26.6872Z" fill="#746D83"/>
<path d="M24.6822 24.5339L26.0584 24.6481L28.0211 24.5162H27.9874L26.1691 24.3349C25.7526 24.1771 26.0413 23.248 26.0413 23.248L24.6485 23.321L24.5373 23.3269C24.0449 24.5162 24.6822 24.5339 24.6822 24.5339Z" fill="#D1D9EC"/>
<path opacity="0.1" d="M24.6822 24.5339L26.0584 24.6481L28.0211 24.5162H27.9874L26.003 24.5892L24.6736 24.4402C24.2959 24.3378 24.5122 23.6619 24.6485 23.3215L24.5373 23.3274C24.0449 24.5162 24.6822 24.5339 24.6822 24.5339Z" fill="black"/>
<path d="M22.272 16.0887L22.693 22.3213L22.7501 23.1391C22.7558 23.2294 22.7948 23.314 22.8591 23.3754C22.9234 23.4369 23.0082 23.4705 23.0958 23.4694H23.2236L29.5624 23.43C29.5872 23.4297 29.6116 23.4241 29.6341 23.4136C29.6566 23.4031 29.6768 23.3878 29.6933 23.3688C29.7098 23.3499 29.7223 23.3275 29.7301 23.3033C29.7378 23.2791 29.7405 23.2534 29.7382 23.228L29.6811 22.4096L29.2349 16.929C29.228 16.8575 29.2013 16.7896 29.1582 16.7332C29.115 16.6769 29.0571 16.6345 28.9913 16.611L22.9498 15.676C22.7444 15.6024 22.535 15.6283 22.4043 15.7407C22.3562 15.783 22.3189 15.8369 22.2958 15.8976C22.2727 15.9583 22.2645 16.024 22.272 16.0887V16.0887Z" fill="#4C4C56"/>
<path d="M22.6929 22.3212L22.7499 23.139C22.7556 23.2293 22.7946 23.3139 22.859 23.3753C22.9233 23.4368 23.008 23.4704 23.0957 23.4693H23.2235L29.5623 23.4299C29.587 23.4296 29.6114 23.424 29.6339 23.4135C29.6565 23.403 29.6766 23.3877 29.6931 23.3687C29.7097 23.3498 29.7222 23.3274 29.7299 23.3032C29.7376 23.279 29.7404 23.2533 29.738 23.2279L29.681 22.4095L22.6929 22.3212Z" fill="#DFE6F5"/>
<path d="M26.9417 23.1747C26.9887 23.1747 27.0267 23.0962 27.0267 22.9993C27.0267 22.9024 26.9887 22.8238 26.9417 22.8238C26.8948 22.8238 26.8567 22.9024 26.8567 22.9993C26.8567 23.0962 26.8948 23.1747 26.9417 23.1747Z" fill="white"/>
<path d="M26.6949 25.3318C26.6949 25.3318 24.9616 24.6564 24.4943 25.1475C24.4943 25.1475 24.4178 25.2971 24.7322 25.3318L26.0023 25.4372C26.0023 25.4372 26.5249 25.4896 26.6949 25.3318Z" fill="#D1D9EC"/>
<path d="M26.6491 25.1563C26.3068 25.0126 25.2838 24.6411 24.6277 25.0521C24.6277 25.0521 25.3534 24.9691 25.7522 25.2069C26.151 25.4448 26.6953 25.3318 26.6953 25.3318L26.7033 25.317C26.711 25.303 26.7156 25.2875 26.717 25.2714C26.7184 25.2554 26.7164 25.2393 26.7113 25.2241C26.7062 25.2089 26.698 25.195 26.6873 25.1833C26.6766 25.1716 26.6636 25.1624 26.6491 25.1563V25.1563Z" fill="#DFE6F5"/>
<path d="M22.2706 16.0887L22.7464 23.1403C22.7521 23.2305 22.7912 23.3151 22.8555 23.3766C22.9198 23.438 23.0045 23.4717 23.0922 23.4706H23.22C23.1324 23.3843 23.0578 23.2851 22.9986 23.1762C22.9986 23.1762 22.5313 16.0905 22.4971 15.915C22.4821 15.8493 22.4495 15.7893 22.403 15.7419C22.355 15.784 22.3178 15.8377 22.2947 15.8982C22.2717 15.9587 22.2634 16.0241 22.2706 16.0887V16.0887Z" fill="#DFE6F5"/>
<path opacity="0.1" d="M22.2706 16.0887L22.7464 23.1403C22.7521 23.2305 22.7912 23.3151 22.8555 23.3766C22.9198 23.438 23.0045 23.4717 23.0922 23.4706H23.22C23.1324 23.3843 23.0578 23.2851 22.9986 23.1762C22.9986 23.1762 22.5313 16.0905 22.4971 15.915C22.4821 15.8493 22.4495 15.7893 22.403 15.7419C22.355 15.784 22.3178 15.8377 22.2947 15.8982C22.2717 15.9587 22.2634 16.0241 22.2706 16.0887V16.0887Z" fill="black"/>
<path opacity="0.1" d="M21.4536 18.0436C21.9671 17.9258 23.1652 17.5631 23.1652 17.5631L23.3798 17.5184C23.3769 16.7482 23.3398 16.0022 23.3261 15.752H23.321C23.321 15.752 22.298 16.0964 22.0538 16.2819C21.8096 16.4674 21.0531 16.4191 21.0531 16.4191C21.0531 16.4191 19.8754 16.4844 18.8981 17.6108C17.9207 18.7372 20.9424 18.1596 21.4536 18.0436Z" fill="black"/>
<path d="M26.4508 15.9961C26.4965 16.0176 26.5362 16.0508 26.5661 16.0925C26.596 16.1341 26.6152 16.183 26.6218 16.2344C26.6285 16.2858 26.6224 16.3381 26.6042 16.3864C26.586 16.4347 26.5562 16.4775 26.5176 16.5107C26.2465 16.7421 25.8512 17.0188 25.4735 17.0577C24.8459 17.123 23.3282 17.4369 23.1776 17.4699C23.1695 17.4713 23.1615 17.4732 23.1536 17.4757C23.0287 17.5134 21.9355 17.8437 21.4534 17.9527C20.9399 18.0704 17.916 18.6422 18.8968 17.5181C19.7971 16.483 20.8669 16.3405 21.0317 16.327C21.0448 16.3258 21.058 16.3258 21.0711 16.327C21.1852 16.3323 21.8311 16.3552 22.0542 16.1886C22.1704 16.1134 22.2934 16.0501 22.4216 15.9996C22.905 15.7932 23.4093 15.6431 23.925 15.5521L24.9708 15.3637C25.0303 15.3531 25.0916 15.3613 25.1465 15.3872L26.4508 15.9961Z" fill="#EFB7B9"/>
<path d="M24.2551 12.9967L24.7441 12.9507C24.7441 12.9507 25.2781 13.3629 25.6781 13.3629C26.078 13.3629 26.3228 13.8928 26.3228 13.8928C26.3228 13.8928 26.9897 14.2143 27.2123 14.2603C27.4348 14.3062 27.8125 14.5352 27.7012 14.6271C27.59 14.7189 27.7235 14.9256 27.9237 15.0858C28.124 15.2459 28.4372 16.0726 28.1679 16.1874C27.8986 16.3022 27.1678 16.5313 26.9698 16.6461C26.7718 16.7609 26.5253 16.6461 26.5253 16.6461C26.5253 16.6461 25.3454 15.0616 24.7447 15.3602C24.1439 15.6587 23.3217 15.6581 23.3217 15.6581L22.677 14.2591L24.2551 12.9967Z" fill="#67647E"/>
<path d="M53.5311 41.8483C53.4763 41.9256 53.4327 42.0107 53.4016 42.1009C53.393 42.1227 53.3856 42.148 53.3776 42.1722C53.3631 42.1653 53.348 42.1598 53.3325 42.1557C53.266 42.1383 53.1972 42.1324 53.1288 42.138C53.1288 42.1103 53.1288 42.0821 53.1328 42.0514C53.1408 41.7411 53.1054 41.309 52.819 41.4921C52.5435 41.6687 52.7397 41.9631 52.9172 42.1515L52.9628 42.1981C52.8013 42.3158 52.7705 42.5943 52.7431 42.8834C52.7158 43.1725 52.4784 43.4887 52.3209 43.6683C52.305 43.6872 52.2901 43.7031 52.2764 43.7184C52.2129 43.6662 52.1394 43.6283 52.0608 43.6073C51.9821 43.5863 51.9001 43.5826 51.82 43.5965L51.7989 43.517C51.6711 43.0406 51.4058 42.2157 51.0674 42.035C51.0817 42.0167 51.0965 41.9979 51.1119 41.9761C51.2557 41.7824 51.4172 41.4938 51.1781 41.4202C50.9391 41.3466 50.918 41.6705 50.9311 41.9125C50.9311 41.9431 50.9334 41.972 50.9379 41.999C50.8901 42.0013 50.8431 42.0136 50.8001 42.0353C50.757 42.057 50.7187 42.0875 50.6875 42.1251L50.6509 42.0797C50.457 41.8442 50.1009 41.4691 49.9937 41.7523C49.8933 42.0161 50.2065 42.3588 50.4267 42.5572L50.4404 42.5696C50.2921 43.1884 50.9379 43.693 51.2854 43.9138L51.3299 43.9421C50.8506 44.525 50.5551 45.6179 50.5551 45.6179L51.897 45.8652C51.897 45.8652 52.7865 45.0726 52.673 44.3284H52.6821C53.571 44.1447 53.7736 43.1661 53.6349 42.5855L53.6509 42.5784C53.8127 42.5099 53.9544 42.3991 54.0623 42.2569C54.3082 41.9007 53.7861 41.498 53.5311 41.8483Z" fill="#2B6BB9"/>
<path opacity="0.1" d="M53.5311 41.8483C53.4763 41.9256 53.4327 42.0107 53.4016 42.1009C53.393 42.1227 53.3856 42.148 53.3776 42.1722C53.3631 42.1653 53.348 42.1598 53.3325 42.1557C53.266 42.1383 53.1972 42.1324 53.1288 42.138C53.1288 42.1103 53.1288 42.0821 53.1328 42.0514C53.1408 41.7411 53.1054 41.309 52.819 41.4921C52.5435 41.6687 52.7397 41.9631 52.9172 42.1515L52.9628 42.1981C52.8013 42.3158 52.7705 42.5943 52.7431 42.8834C52.7158 43.1725 52.4784 43.4887 52.3209 43.6683C52.305 43.6872 52.2901 43.7031 52.2764 43.7184C52.2129 43.6662 52.1394 43.6283 52.0608 43.6073C51.9821 43.5863 51.9001 43.5826 51.82 43.5965L51.7989 43.517C51.6711 43.0406 51.4058 42.2157 51.0674 42.035C51.0817 42.0167 51.0965 41.9979 51.1119 41.9761C51.2557 41.7824 51.4172 41.4938 51.1781 41.4202C50.9391 41.3466 50.918 41.6705 50.9311 41.9125C50.9311 41.9431 50.9334 41.972 50.9379 41.999C50.8901 42.0013 50.8431 42.0136 50.8001 42.0353C50.757 42.057 50.7187 42.0875 50.6875 42.1251L50.6509 42.0797C50.457 41.8442 50.1009 41.4691 49.9937 41.7523C49.8933 42.0161 50.2065 42.3588 50.4267 42.5572L50.4404 42.5696C50.2921 43.1884 50.9379 43.693 51.2854 43.9138L51.3299 43.9421C50.8506 44.525 50.5551 45.6179 50.5551 45.6179L51.897 45.8652C51.897 45.8652 52.7865 45.0726 52.673 44.3284H52.6821C53.571 44.1447 53.7736 43.1661 53.6349 42.5855L53.6509 42.5784C53.8127 42.5099 53.9544 42.3991 54.0623 42.2569C54.3082 41.9007 53.7861 41.498 53.5311 41.8483Z" fill="black"/>
<path d="M50.8586 42.2476L50.7017 42.7215C50.7017 42.7215 50.615 42.658 50.5048 42.5579C50.2846 42.3594 49.9714 42.0167 50.0718 41.753C50.1791 41.4697 50.5351 41.8436 50.7291 42.0803C50.8072 42.1745 50.8586 42.2476 50.8586 42.2476Z" fill="#2B6BB9"/>
<path d="M51.1919 41.9768C51.1439 42.042 51.0925 42.1045 51.0379 42.164C51.0241 42.0814 51.0148 41.998 51.0099 41.9143C50.9968 41.6723 51.0213 41.3497 51.257 41.4221C51.4926 41.4945 51.3346 41.783 51.1919 41.9768Z" fill="#2B6BB9"/>
<path d="M53.2133 42.0514C53.2082 42.2075 53.1933 42.3323 53.1933 42.3323C53.1243 42.2766 53.0589 42.2162 52.9976 42.1515C52.8202 41.9619 52.6239 41.6681 52.8995 41.4921C53.1876 41.3089 53.2213 41.7411 53.2133 42.0514Z" fill="#2B6BB9"/>
<path d="M54.1401 42.2559C54.0322 42.398 53.8905 42.5088 53.7287 42.5774C53.6838 42.5978 53.6377 42.6151 53.5906 42.6292L53.4058 42.3613C53.4252 42.2727 53.4507 42.1858 53.4822 42.101C53.5134 42.0108 53.557 41.9257 53.6117 41.8484C53.8673 41.4981 54.3894 41.9008 54.1401 42.2559Z" fill="#2B6BB9"/>
<path opacity="0.1" d="M50.7284 42.0804C50.8065 42.1746 50.8579 42.2476 50.8579 42.2476L50.701 42.7216C50.701 42.7216 50.6143 42.658 50.5042 42.5579C50.5284 42.4062 50.589 42.2631 50.6805 42.1416C50.6964 42.1192 50.713 42.0992 50.7284 42.0804Z" fill="black"/>
<path opacity="0.1" d="M51.1915 41.9768C51.1435 42.042 51.0921 42.1046 51.0375 42.164C51.0238 42.0814 51.0144 41.998 51.0095 41.9144C51.075 41.9153 51.1386 41.9371 51.1915 41.9768V41.9768Z" fill="black"/>
<path d="M51.9617 43.8588L51.5714 44.0355C51.5003 43.9987 51.431 43.9582 51.3638 43.9142C50.9535 43.6539 50.1285 42.9986 50.6791 42.226C51.2297 41.4535 51.693 42.839 51.8772 43.5167C51.9332 43.7199 51.9617 43.8588 51.9617 43.8588Z" fill="#2B6BB9"/>
<path opacity="0.1" d="M52.998 42.1515C53.0551 42.0912 53.1322 42.0555 53.2137 42.0514C53.2086 42.2074 53.1937 42.3323 53.1937 42.3323C53.1247 42.2765 53.0593 42.2161 52.998 42.1515Z" fill="black"/>
<path opacity="0.1" d="M53.7287 42.5763C53.6838 42.5967 53.6377 42.614 53.5906 42.6281L53.4058 42.3602C53.4252 42.2716 53.4507 42.1847 53.4822 42.0999C53.6015 42.1729 53.6893 42.3519 53.7287 42.5763Z" fill="black"/>
<path d="M52.7597 44.3274C52.738 44.3321 52.7164 44.3363 52.6941 44.3398C51.3858 44.5447 52.2628 43.8163 52.2628 43.8163C52.2628 43.8163 52.3198 43.7604 52.4014 43.6685C52.5589 43.4919 52.7968 43.1745 52.8236 42.8837C52.8647 42.4462 52.9126 42.0358 53.413 42.1559C53.9042 42.2748 53.9978 44.0719 52.7597 44.3274Z" fill="#2B6BB9"/>
<path d="M52.7352 47.6889H50.2356V48.3672H52.7352V47.6889Z" fill="#D4DFEC"/>
<path d="M53.1046 45.4846H49.8389V47.8516H53.1046V45.4846Z" fill="#D4DFEC"/>
<path opacity="0.1" d="M52.7352 47.6889H50.2356V48.3672H52.7352V47.6889Z" fill="black"/>
<path opacity="0.1" d="M53.1046 45.4846H49.8389V47.8516H53.1046V45.4846Z" fill="black"/>
<path d="M52.9012 47.6889H50.4016V48.3672H52.9012V47.6889Z" fill="#D4DFEC"/>
<path opacity="0.1" d="M51.8758 43.5184C51.9329 43.7209 51.9602 43.8599 51.9602 43.8599L51.57 44.0365C51.4988 43.9997 51.4295 43.9592 51.3623 43.9152C51.5164 43.7144 51.6887 43.5637 51.8758 43.5184Z" fill="black"/>
<path opacity="0.1" d="M52.7597 44.3271C52.738 44.3318 52.7164 44.3359 52.6941 44.3395C51.3859 44.5444 52.2628 43.816 52.2628 43.816C52.2628 43.816 52.3198 43.7601 52.4014 43.6682C52.6456 43.8714 52.7466 44.0975 52.7597 44.3271Z" fill="black"/>
<path d="M50.6323 45.6188C50.6323 45.6188 51.3649 42.9102 52.3919 43.7463C53.4189 44.5824 51.9743 45.8661 51.9743 45.8661L50.6323 45.6188Z" fill="#2B6BB9"/>
<path opacity="0.1" d="M51.0038 42.7352C51.0492 42.7352 51.086 42.6972 51.086 42.6504C51.086 42.6036 51.0492 42.5656 51.0038 42.5656C50.9584 42.5656 50.9216 42.6036 50.9216 42.6504C50.9216 42.6972 50.9584 42.7352 51.0038 42.7352Z" fill="black"/>
<path opacity="0.1" d="M50.9965 43.131C51.0418 43.131 51.0786 43.093 51.0786 43.0462C51.0786 42.9994 51.0418 42.9614 50.9965 42.9614C50.9511 42.9614 50.9143 42.9994 50.9143 43.0462C50.9143 43.093 50.9511 43.131 50.9965 43.131Z" fill="black"/>
<path opacity="0.1" d="M53.3793 42.8127C53.4247 42.8127 53.4614 42.7747 53.4614 42.7279C53.4614 42.6811 53.4247 42.6431 53.3793 42.6431C53.3339 42.6431 53.2971 42.6811 53.2971 42.7279C53.2971 42.7747 53.3339 42.8127 53.3793 42.8127Z" fill="black"/>
<path opacity="0.1" d="M51.4615 44.8415C51.5069 44.8415 51.5437 44.8036 51.5437 44.7567C51.5437 44.7099 51.5069 44.6719 51.4615 44.6719C51.4162 44.6719 51.3794 44.7099 51.3794 44.7567C51.3794 44.8036 51.4162 44.8415 51.4615 44.8415Z" fill="black"/>
<path opacity="0.1" d="M53.2072 43.4701C53.2525 43.4701 53.2893 43.4321 53.2893 43.3853C53.2893 43.3384 53.2525 43.3005 53.2072 43.3005C53.1618 43.3005 53.125 43.3384 53.125 43.3853C53.125 43.4321 53.1618 43.4701 53.2072 43.4701Z" fill="black"/>
<path opacity="0.1" d="M52.3588 44.3465C52.4041 44.3465 52.4409 44.3086 52.4409 44.2617C52.4409 44.2149 52.4041 44.1769 52.3588 44.1769C52.3134 44.1769 52.2766 44.2149 52.2766 44.2617C52.2766 44.3086 52.3134 44.3465 52.3588 44.3465Z" fill="black"/>
<path opacity="0.1" d="M51.2833 42.9046C51.3287 42.9046 51.3655 42.8666 51.3655 42.8198C51.3655 42.7729 51.3287 42.735 51.2833 42.735C51.238 42.735 51.2012 42.7729 51.2012 42.8198C51.2012 42.8666 51.238 42.9046 51.2833 42.9046Z" fill="black"/>
<path opacity="0.1" d="M53.1535 43.0672C53.1988 43.0672 53.2356 43.0293 53.2356 42.9824C53.2356 42.9356 53.1988 42.8976 53.1535 42.8976C53.1081 42.8976 53.0713 42.9356 53.0713 42.9824C53.0713 43.0293 53.1081 43.0672 53.1535 43.0672Z" fill="black"/>
<path opacity="0.1" d="M52.8727 43.7243C52.9181 43.7243 52.9548 43.6863 52.9548 43.6395C52.9548 43.5926 52.9181 43.5547 52.8727 43.5547C52.8273 43.5547 52.7905 43.5926 52.7905 43.6395C52.7905 43.6863 52.8273 43.7243 52.8727 43.7243Z" fill="black"/>
<path opacity="0.1" d="M52.0096 44.778C52.055 44.778 52.0918 44.7401 52.0918 44.6932C52.0918 44.6464 52.055 44.6085 52.0096 44.6085C51.9643 44.6085 51.9275 44.6464 51.9275 44.6932C51.9275 44.7401 51.9643 44.778 52.0096 44.778Z" fill="black"/>
<path opacity="0.1" d="M51.8314 44.3609C51.8768 44.3609 51.9136 44.3229 51.9136 44.2761C51.9136 44.2292 51.8768 44.1913 51.8314 44.1913C51.7861 44.1913 51.7493 44.2292 51.7493 44.2761C51.7493 44.3229 51.7861 44.3609 51.8314 44.3609Z" fill="black"/>
<path opacity="0.1" d="M51.4066 43.4206C51.452 43.4206 51.4888 43.3827 51.4888 43.3358C51.4888 43.289 51.452 43.251 51.4066 43.251C51.3612 43.251 51.3245 43.289 51.3245 43.3358C51.3245 43.3827 51.3612 43.4206 51.4066 43.4206Z" fill="black"/>
<path opacity="0.1" d="M52.9012 47.6889H50.4016V47.9368H52.9012V47.6889Z" fill="black"/>
<path d="M53.2696 45.4846H50.0037V47.8516H53.2696V45.4846Z" fill="#D4DFEC"/>
<path opacity="0.1" d="M52.1195 45.1592C52.1649 45.1592 52.2017 45.1212 52.2017 45.0744C52.2017 45.0276 52.1649 44.9896 52.1195 44.9896C52.0741 44.9896 52.0374 45.0276 52.0374 45.0744C52.0374 45.1212 52.0741 45.1592 52.1195 45.1592Z" fill="black"/>
<path opacity="0.1" d="M51.6252 45.2654C51.6706 45.2654 51.7074 45.2274 51.7074 45.1806C51.7074 45.1338 51.6706 45.0958 51.6252 45.0958C51.5798 45.0958 51.543 45.1338 51.543 45.1806C51.543 45.2274 51.5798 45.2654 51.6252 45.2654Z" fill="black"/>
</g>
<path d="M76.904 31V12.744H81.076V20.22H81.16L86.564 12.744H91.128L85.64 19.996L91.632 31H87.068L83.176 23.244L81.076 26.016V31H76.904ZM98.0611 31.336C97.3517 31.336 96.7171 31.224 96.1571 31C95.5971 30.7947 95.1211 30.5053 94.7291 30.132C94.3371 29.74 94.0291 29.292 93.8051 28.788C93.5997 28.284 93.4971 27.7333 93.4971 27.136C93.4971 26.352 93.6651 25.6707 94.0011 25.092C94.3371 24.4947 94.8691 23.9907 95.5971 23.58C96.3437 23.1693 97.2957 22.8427 98.4531 22.6C99.6104 22.3387 101.01 22.1613 102.653 22.068C102.578 21.4333 102.298 20.9387 101.813 20.584C101.346 20.2293 100.637 20.052 99.6851 20.052C99.0131 20.052 98.3317 20.1733 97.6411 20.416C96.9691 20.64 96.2411 20.948 95.4571 21.34L94.0011 18.652C94.9531 18.1107 95.9704 17.6627 97.0531 17.308C98.1544 16.9533 99.3024 16.776 100.497 16.776C102.438 16.776 103.969 17.2893 105.089 18.316C106.209 19.3427 106.769 20.92 106.769 23.048V31H103.409L103.101 29.432H102.989C102.28 29.9733 101.505 30.4307 100.665 30.804C99.8251 31.1587 98.9571 31.336 98.0611 31.336ZM99.3771 28.144C99.9931 28.144 100.572 28.0227 101.113 27.78C101.654 27.5187 102.168 27.2013 102.653 26.828V24.532C101.626 24.588 100.777 24.6813 100.105 24.812C99.4331 24.9427 98.9011 25.1107 98.5091 25.316C98.1171 25.5027 97.8371 25.7267 97.6691 25.988C97.5197 26.2493 97.4451 26.5293 97.4451 26.828C97.4451 27.276 97.6131 27.612 97.9491 27.836C98.3037 28.0413 98.7797 28.144 99.3771 28.144ZM111.826 31V17.112H115.186L115.522 20.136H115.606C116.297 18.9973 117.127 18.1573 118.098 17.616C119.069 17.056 120.114 16.776 121.234 16.776C121.85 16.776 122.345 16.8227 122.718 16.916C123.11 17.0093 123.511 17.1493 123.922 17.336L123.082 20.78C122.653 20.6493 122.261 20.556 121.906 20.5C121.57 20.4253 121.141 20.388 120.618 20.388C119.759 20.388 118.91 20.64 118.07 21.144C117.249 21.648 116.539 22.5253 115.942 23.776V31H111.826ZM129.371 36.432C128.961 36.432 128.578 36.404 128.223 36.348C127.869 36.3107 127.542 36.2453 127.243 36.152L127.971 33.016C128.326 33.128 128.69 33.184 129.063 33.184C129.866 33.184 130.491 33.016 130.939 32.68C131.406 32.344 131.751 31.9053 131.975 31.364L132.255 30.636L126.235 17.112H130.323L132.647 23.076C132.909 23.7293 133.151 24.4107 133.375 25.12C133.599 25.8107 133.823 26.52 134.047 27.248H134.159C134.346 26.5573 134.551 25.8667 134.775 25.176C134.999 24.4667 135.214 23.7667 135.419 23.076L137.463 17.112H141.355L135.867 31.14C135.531 32.0173 135.167 32.7827 134.775 33.436C134.383 34.108 133.935 34.6587 133.431 35.088C132.927 35.536 132.339 35.872 131.667 36.096C131.014 36.32 130.249 36.432 129.371 36.432ZM148.428 31.336C147.719 31.336 147.084 31.224 146.524 31C145.964 30.7947 145.488 30.5053 145.096 30.132C144.704 29.74 144.396 29.292 144.172 28.788C143.967 28.284 143.864 27.7333 143.864 27.136C143.864 26.352 144.032 25.6707 144.368 25.092C144.704 24.4947 145.236 23.9907 145.964 23.58C146.711 23.1693 147.663 22.8427 148.82 22.6C149.978 22.3387 151.378 22.1613 153.02 22.068C152.946 21.4333 152.666 20.9387 152.18 20.584C151.714 20.2293 151.004 20.052 150.052 20.052C149.38 20.052 148.699 20.1733 148.008 20.416C147.336 20.64 146.608 20.948 145.824 21.34L144.368 18.652C145.32 18.1107 146.338 17.6627 147.42 17.308C148.522 16.9533 149.67 16.776 150.864 16.776C152.806 16.776 154.336 17.2893 155.456 18.316C156.576 19.3427 157.136 20.92 157.136 23.048V31H153.776L153.468 29.432H153.356C152.647 29.9733 151.872 30.4307 151.032 30.804C150.192 31.1587 149.324 31.336 148.428 31.336ZM149.744 28.144C150.36 28.144 150.939 28.0227 151.48 27.78C152.022 27.5187 152.535 27.2013 153.02 26.828V24.532C151.994 24.588 151.144 24.6813 150.472 24.812C149.8 24.9427 149.268 25.1107 148.876 25.316C148.484 25.5027 148.204 25.7267 148.036 25.988C147.887 26.2493 147.812 26.5293 147.812 26.828C147.812 27.276 147.98 27.612 148.316 27.836C148.671 28.0413 149.147 28.144 149.744 28.144ZM184.19 31.336C181.95 31.336 180.28 30.7107 179.178 29.46C178.077 28.1907 177.526 26.3613 177.526 23.972V12.744H181.642V24.392C181.642 25.4933 181.848 26.3333 182.258 26.912C182.669 27.4907 183.313 27.78 184.19 27.78C185.068 27.78 185.712 27.4907 186.122 26.912C186.552 26.3333 186.766 25.4933 186.766 24.392V12.744H190.742V23.972C190.742 26.3613 190.201 28.1907 189.118 29.46C188.054 30.7107 186.412 31.336 184.19 31.336ZM203.387 31.336C202.286 31.336 201.353 31.1867 200.587 30.888C199.822 30.5893 199.197 30.1787 198.711 29.656C198.245 29.1147 197.909 28.4707 197.703 27.724C197.498 26.9773 197.395 26.1467 197.395 25.232V20.332H193.895V17.28L197.591 17.112L198.123 12.856H201.511V17.112H207.391V20.332H201.511V25.204C201.511 26.268 201.745 27.024 202.211 27.472C202.678 27.9013 203.425 28.116 204.451 28.116C204.974 28.116 205.45 28.0693 205.879 27.976C206.327 27.8827 206.766 27.7613 207.195 27.612L207.923 30.58C207.307 30.7667 206.626 30.9347 205.879 31.084C205.151 31.252 204.321 31.336 203.387 31.336ZM215.585 31.336C214.875 31.336 214.241 31.224 213.681 31C213.121 30.7947 212.645 30.5053 212.253 30.132C211.861 29.74 211.553 29.292 211.329 28.788C211.123 28.284 211.021 27.7333 211.021 27.136C211.021 26.352 211.189 25.6707 211.525 25.092C211.861 24.4947 212.393 23.9907 213.121 23.58C213.867 23.1693 214.819 22.8427 215.977 22.6C217.134 22.3387 218.534 22.1613 220.177 22.068C220.102 21.4333 219.822 20.9387 219.337 20.584C218.87 20.2293 218.161 20.052 217.209 20.052C216.537 20.052 215.855 20.1733 215.165 20.416C214.493 20.64 213.765 20.948 212.981 21.34L211.525 18.652C212.477 18.1107 213.494 17.6627 214.577 17.308C215.678 16.9533 216.826 16.776 218.021 16.776C219.962 16.776 221.493 17.2893 222.613 18.316C223.733 19.3427 224.293 20.92 224.293 23.048V31H220.933L220.625 29.432H220.513C219.803 29.9733 219.029 30.4307 218.189 30.804C217.349 31.1587 216.481 31.336 215.585 31.336ZM216.901 28.144C217.517 28.144 218.095 28.0227 218.637 27.78C219.178 27.5187 219.691 27.2013 220.177 26.828V24.532C219.15 24.588 218.301 24.6813 217.629 24.812C216.957 24.9427 216.425 25.1107 216.033 25.316C215.641 25.5027 215.361 25.7267 215.193 25.988C215.043 26.2493 214.969 26.5293 214.969 26.828C214.969 27.276 215.137 27.612 215.473 27.836C215.827 28.0413 216.303 28.144 216.901 28.144ZM227.082 31V17.112H230.19L230.47 18.82H230.582C230.843 18.26 231.207 17.784 231.674 17.392C232.14 16.9813 232.775 16.776 233.578 16.776C234.175 16.776 234.679 16.972 235.09 17.364C235.519 17.7373 235.818 18.2973 235.986 19.044C236.247 18.4093 236.62 17.8773 237.106 17.448C237.61 17 238.263 16.776 239.066 16.776C240.074 16.776 240.839 17.1773 241.362 17.98C241.903 18.764 242.174 19.856 242.174 21.256V31H238.254V21.536C238.254 21.1067 238.198 20.7893 238.086 20.584C237.974 20.3787 237.778 20.276 237.498 20.276C237.236 20.276 237.012 20.388 236.826 20.612C236.639 20.836 236.443 21.172 236.238 21.62V31H233.018V21.536C233.018 20.696 232.756 20.276 232.234 20.276C231.972 20.276 231.748 20.388 231.562 20.612C231.375 20.836 231.188 21.172 231.002 21.62V31H227.082ZM249.163 31.336C248.453 31.336 247.819 31.224 247.259 31C246.699 30.7947 246.223 30.5053 245.831 30.132C245.439 29.74 245.131 29.292 244.907 28.788C244.701 28.284 244.599 27.7333 244.599 27.136C244.599 26.352 244.767 25.6707 245.103 25.092C245.439 24.4947 245.971 23.9907 246.699 23.58C247.445 23.1693 248.397 22.8427 249.555 22.6C250.712 22.3387 252.112 22.1613 253.755 22.068C253.68 21.4333 253.4 20.9387 252.915 20.584C252.448 20.2293 251.739 20.052 250.787 20.052C250.115 20.052 249.433 20.1733 248.743 20.416C248.071 20.64 247.343 20.948 246.559 21.34L245.103 18.652C246.055 18.1107 247.072 17.6627 248.155 17.308C249.256 16.9533 250.404 16.776 251.599 16.776C253.54 16.776 255.071 17.2893 256.191 18.316C257.311 19.3427 257.871 20.92 257.871 23.048V31H254.511L254.203 29.432H254.091C253.381 29.9733 252.607 30.4307 251.767 30.804C250.927 31.1587 250.059 31.336 249.163 31.336ZM250.479 28.144C251.095 28.144 251.673 28.0227 252.215 27.78C252.756 27.5187 253.269 27.2013 253.755 26.828V24.532C252.728 24.588 251.879 24.6813 251.207 24.812C250.535 24.9427 250.003 25.1107 249.611 25.316C249.219 25.5027 248.939 25.7267 248.771 25.988C248.621 26.2493 248.547 26.5293 248.547 26.828C248.547 27.276 248.715 27.612 249.051 27.836C249.405 28.0413 249.881 28.144 250.479 28.144Z" fill="#2B6BB9"/>
<defs>
<linearGradient id="paint0_linear" x1="14.2617" y1="38.1429" x2="14.2617" y2="6.38901" gradientUnits="userSpaceOnUse">
<stop stop-color="#808080" stop-opacity="0.25"/>
<stop offset="0.54" stop-color="#808080" stop-opacity="0.12"/>
<stop offset="1" stop-color="#808080" stop-opacity="0.1"/>
</linearGradient>
<clipPath id="clip0">
<rect width="56.8528" height="48.764" fill="white"/>
</clipPath>
</defs>
</svg>
